G75*
%MOIN*%
%OFA0B0*%
%FSLAX25Y25*%
%IPPOS*%
%LPD*%
%AMOC8*
5,1,8,0,0,1.08239X$1,22.5*
%
%ADD10R,0.03150X0.01575*%
%ADD11R,0.04331X0.05906*%
%ADD12R,0.01575X0.00945*%
%ADD13R,0.06299X0.08465*%
%ADD14R,0.04800X0.08800*%
%ADD15R,0.14173X0.08661*%
%ADD16R,0.02900X0.11000*%
%ADD17C,0.02880*%
%ADD18R,0.08000X0.06496*%
%ADD19C,0.07400*%
%ADD20R,0.01102X0.01772*%
%ADD21C,0.01200*%
%ADD22C,0.04000*%
%ADD23C,0.01600*%
%ADD24C,0.01000*%
%ADD25C,0.02400*%
%ADD26R,0.04362X0.04362*%
%ADD27C,0.03200*%
%ADD28C,0.00787*%
D10*
X0063000Y0034299D03*
X0063000Y0039024D03*
X0091075Y0043138D03*
X0096575Y0043138D03*
X0101575Y0043138D03*
X0101575Y0047862D03*
X0096575Y0047862D03*
X0091075Y0047862D03*
D11*
X0088555Y0019000D03*
X0070445Y0019000D03*
D12*
X0073382Y0034563D03*
X0073382Y0036531D03*
X0073382Y0038500D03*
X0073382Y0040469D03*
X0073382Y0042437D03*
X0083618Y0042437D03*
X0083618Y0040469D03*
X0083618Y0038500D03*
X0083618Y0036531D03*
X0083618Y0034563D03*
D13*
X0078500Y0038500D03*
D14*
X0099400Y0035700D03*
X0108500Y0035700D03*
X0117600Y0035700D03*
D15*
X0108500Y0011299D03*
D16*
X0041000Y0098000D03*
X0036000Y0098000D03*
X0031000Y0098000D03*
X0026000Y0098000D03*
X0021000Y0098000D03*
X0021000Y0114000D03*
X0026000Y0114000D03*
X0031000Y0114000D03*
X0036000Y0114000D03*
X0041000Y0114000D03*
D17*
X0064440Y0116160D02*
X0074760Y0116160D01*
X0074760Y0115840D01*
X0064440Y0115840D01*
X0064440Y0116160D01*
X0064440Y0111160D02*
X0074760Y0111160D01*
X0074760Y0110840D01*
X0064440Y0110840D01*
X0064440Y0111160D01*
X0064440Y0106160D02*
X0074760Y0106160D01*
X0074760Y0105840D01*
X0064440Y0105840D01*
X0064440Y0106160D01*
X0064440Y0101160D02*
X0074760Y0101160D01*
X0074760Y0100840D01*
X0064440Y0100840D01*
X0064440Y0101160D01*
X0064440Y0096160D02*
X0074760Y0096160D01*
X0074760Y0095840D01*
X0064440Y0095840D01*
X0064440Y0096160D01*
X0064440Y0091160D02*
X0074760Y0091160D01*
X0074760Y0090840D01*
X0064440Y0090840D01*
X0064440Y0091160D01*
X0064440Y0086160D02*
X0074760Y0086160D01*
X0074760Y0085840D01*
X0064440Y0085840D01*
X0064440Y0086160D01*
X0064440Y0081160D02*
X0074760Y0081160D01*
X0074760Y0080840D01*
X0064440Y0080840D01*
X0064440Y0081160D01*
X0064440Y0076160D02*
X0074760Y0076160D01*
X0074760Y0075840D01*
X0064440Y0075840D01*
X0064440Y0076160D01*
X0064440Y0071160D02*
X0074760Y0071160D01*
X0074760Y0070840D01*
X0064440Y0070840D01*
X0064440Y0071160D01*
X0064440Y0066160D02*
X0074760Y0066160D01*
X0074760Y0065840D01*
X0064440Y0065840D01*
X0064440Y0066160D01*
X0117240Y0066160D02*
X0127560Y0066160D01*
X0127560Y0065840D01*
X0117240Y0065840D01*
X0117240Y0066160D01*
X0117240Y0071160D02*
X0127560Y0071160D01*
X0127560Y0070840D01*
X0117240Y0070840D01*
X0117240Y0071160D01*
X0117240Y0076160D02*
X0127560Y0076160D01*
X0127560Y0075840D01*
X0117240Y0075840D01*
X0117240Y0076160D01*
X0117240Y0081160D02*
X0127560Y0081160D01*
X0127560Y0080840D01*
X0117240Y0080840D01*
X0117240Y0081160D01*
X0117240Y0086160D02*
X0127560Y0086160D01*
X0127560Y0085840D01*
X0117240Y0085840D01*
X0117240Y0086160D01*
X0117240Y0091160D02*
X0127560Y0091160D01*
X0127560Y0090840D01*
X0117240Y0090840D01*
X0117240Y0091160D01*
X0117240Y0096160D02*
X0127560Y0096160D01*
X0127560Y0095840D01*
X0117240Y0095840D01*
X0117240Y0096160D01*
X0117240Y0101160D02*
X0127560Y0101160D01*
X0127560Y0100840D01*
X0117240Y0100840D01*
X0117240Y0101160D01*
D18*
X0044146Y0070252D03*
X0044146Y0060252D03*
X0044146Y0050252D03*
X0010484Y0050252D03*
X0010484Y0060252D03*
X0010484Y0070252D03*
D19*
X0034000Y0026000D03*
X0034000Y0016000D03*
D20*
X0029622Y0075606D03*
X0027654Y0075606D03*
X0025685Y0075606D03*
X0025685Y0081276D03*
X0027654Y0081276D03*
X0029622Y0081276D03*
D21*
X0005814Y0044034D02*
X0006000Y0006000D01*
X0098567Y0006000D01*
X0098413Y0006372D01*
X0098413Y0016227D01*
X0098870Y0017329D01*
X0099441Y0017900D01*
X0098784Y0017900D01*
X0097461Y0018448D01*
X0096448Y0019461D01*
X0095900Y0020784D01*
X0095900Y0028508D01*
X0095301Y0028757D01*
X0094457Y0029601D01*
X0094000Y0030703D01*
X0094000Y0040697D01*
X0094128Y0041006D01*
X0094018Y0041070D01*
X0093825Y0041263D01*
X0093632Y0041070D01*
X0093267Y0040859D01*
X0092860Y0040750D01*
X0091075Y0040750D01*
X0091075Y0043138D01*
X0094250Y0043138D01*
X0096575Y0043138D01*
X0099750Y0043138D01*
X0101575Y0043138D01*
X0104750Y0043138D01*
X0104750Y0044136D01*
X0104664Y0044455D01*
X0104849Y0044532D01*
X0105693Y0045375D01*
X0106150Y0046478D01*
X0106150Y0047900D01*
X0113300Y0047900D01*
X0113300Y0042443D01*
X0112657Y0041799D01*
X0112285Y0040901D01*
X0112180Y0041082D01*
X0111882Y0041380D01*
X0111518Y0041591D01*
X0111111Y0041700D01*
X0109100Y0041700D01*
X0109100Y0036300D01*
X0107900Y0036300D01*
X0107900Y0041700D01*
X0105889Y0041700D01*
X0105482Y0041591D01*
X0105118Y0041380D01*
X0104820Y0041082D01*
X0104715Y0040901D01*
X0104484Y0041461D01*
X0104641Y0041733D01*
X0104750Y0042140D01*
X0104750Y0043138D01*
X0101575Y0043138D01*
X0101575Y0043138D01*
X0101575Y0043138D01*
X0096575Y0043138D01*
X0096575Y0043138D01*
X0096575Y0043138D01*
X0091075Y0043138D01*
X0091075Y0043138D01*
X0091075Y0043138D01*
X0091075Y0040750D01*
X0089839Y0040750D01*
X0089839Y0039788D01*
X0090160Y0039655D01*
X0091229Y0038586D01*
X0091808Y0037189D01*
X0091808Y0024750D01*
X0092420Y0024496D01*
X0093264Y0023652D01*
X0093720Y0022549D01*
X0093720Y0015450D01*
X0093264Y0014348D01*
X0092420Y0013504D01*
X0091317Y0013047D01*
X0085793Y0013047D01*
X0084690Y0013504D01*
X0083846Y0014348D01*
X0083390Y0015450D01*
X0083390Y0022549D01*
X0083846Y0023652D01*
X0084208Y0024014D01*
X0084208Y0031063D01*
X0082922Y0031063D01*
X0082855Y0031091D01*
X0082234Y0031091D01*
X0081131Y0031547D01*
X0080287Y0032391D01*
X0080173Y0032668D01*
X0079100Y0032668D01*
X0079100Y0037900D01*
X0077900Y0037900D01*
X0077900Y0032668D01*
X0076827Y0032668D01*
X0076713Y0032391D01*
X0075869Y0031547D01*
X0074766Y0031091D01*
X0074433Y0031091D01*
X0074189Y0030982D01*
X0066800Y0030795D01*
X0066800Y0024587D01*
X0067683Y0024953D01*
X0073207Y0024953D01*
X0074310Y0024496D01*
X0075154Y0023652D01*
X0075610Y0022549D01*
X0075610Y0015450D01*
X0075154Y0014348D01*
X0074310Y0013504D01*
X0073207Y0013047D01*
X0067683Y0013047D01*
X0066580Y0013504D01*
X0065736Y0014348D01*
X0065732Y0014358D01*
X0065239Y0013168D01*
X0063832Y0011761D01*
X0061995Y0011000D01*
X0060005Y0011000D01*
X0058168Y0011761D01*
X0056761Y0013168D01*
X0056000Y0015005D01*
X0056000Y0016995D01*
X0056761Y0018832D01*
X0056800Y0018871D01*
X0056800Y0019835D01*
X0057439Y0021379D01*
X0058621Y0022561D01*
X0059200Y0022800D01*
X0059200Y0031494D01*
X0058882Y0031812D01*
X0058425Y0032915D01*
X0058425Y0035683D01*
X0058882Y0036786D01*
X0059726Y0037630D01*
X0059911Y0037706D01*
X0059825Y0038026D01*
X0059825Y0039024D01*
X0063000Y0039024D01*
X0063000Y0041411D01*
X0063000Y0039024D01*
X0063000Y0039024D01*
X0066175Y0039024D01*
X0066175Y0040022D01*
X0066066Y0040429D01*
X0065855Y0040793D01*
X0065557Y0041091D01*
X0065192Y0041302D01*
X0064785Y0041411D01*
X0063000Y0041411D01*
X0061215Y0041411D01*
X0060808Y0041302D01*
X0060443Y0041091D01*
X0060145Y0040793D01*
X0059934Y0040429D01*
X0059825Y0040022D01*
X0059825Y0039024D01*
X0063000Y0039024D01*
X0063000Y0039024D01*
X0063000Y0039024D01*
X0066175Y0039024D01*
X0066175Y0038026D01*
X0066163Y0037981D01*
X0067534Y0038016D01*
X0067514Y0038036D01*
X0067033Y0038517D01*
X0067026Y0038533D01*
X0067015Y0038545D01*
X0066760Y0039176D01*
X0066500Y0039804D01*
X0066500Y0039821D01*
X0066494Y0039836D01*
X0066500Y0040517D01*
X0066500Y0047900D01*
X0052585Y0047900D01*
X0050894Y0048600D01*
X0049600Y0049894D01*
X0049204Y0050852D01*
X0044746Y0050852D01*
X0044746Y0049652D01*
X0049746Y0049652D01*
X0049746Y0046793D01*
X0049637Y0046386D01*
X0049426Y0046022D01*
X0049128Y0045724D01*
X0048763Y0045513D01*
X0048356Y0045404D01*
X0044746Y0045404D01*
X0044746Y0049652D01*
X0043546Y0049652D01*
X0043546Y0045404D01*
X0039935Y0045404D01*
X0039528Y0045513D01*
X0039163Y0045724D01*
X0038865Y0046022D01*
X0038655Y0046386D01*
X0038546Y0046793D01*
X0038546Y0049652D01*
X0043546Y0049652D01*
X0043546Y0050852D01*
X0038546Y0050852D01*
X0038546Y0053711D01*
X0038655Y0054118D01*
X0038774Y0054325D01*
X0038446Y0054461D01*
X0037602Y0055305D01*
X0037146Y0056407D01*
X0037146Y0056949D01*
X0024713Y0056949D01*
X0023427Y0057482D01*
X0022442Y0058466D01*
X0021909Y0059753D01*
X0021909Y0076302D01*
X0022134Y0076844D01*
X0022134Y0077089D01*
X0022418Y0077776D01*
X0020996Y0077776D01*
X0020724Y0077120D01*
X0019880Y0076276D01*
X0018778Y0075819D01*
X0016408Y0075819D01*
X0017028Y0075199D01*
X0017484Y0074097D01*
X0017484Y0066407D01*
X0017028Y0065305D01*
X0016975Y0065252D01*
X0017028Y0065199D01*
X0017484Y0064097D01*
X0017484Y0056407D01*
X0017028Y0055305D01*
X0016975Y0055252D01*
X0017028Y0055199D01*
X0017484Y0054097D01*
X0017484Y0046407D01*
X0017028Y0045305D01*
X0016184Y0044461D01*
X0015081Y0044004D01*
X0005887Y0044004D01*
X0005814Y0044034D01*
X0005820Y0042948D02*
X0066500Y0042948D01*
X0066500Y0044146D02*
X0015425Y0044146D01*
X0017044Y0045345D02*
X0066500Y0045345D01*
X0066500Y0046543D02*
X0049679Y0046543D01*
X0049746Y0047742D02*
X0066500Y0047742D01*
X0073500Y0047742D02*
X0082239Y0047742D01*
X0082239Y0047900D02*
X0082239Y0045909D01*
X0082234Y0045909D01*
X0081131Y0045453D01*
X0080287Y0044609D01*
X0080173Y0044332D01*
X0079100Y0044332D01*
X0079100Y0039100D01*
X0077900Y0039100D01*
X0077900Y0044332D01*
X0076827Y0044332D01*
X0076713Y0044609D01*
X0075869Y0045453D01*
X0074766Y0045909D01*
X0073500Y0045909D01*
X0073500Y0047900D01*
X0082239Y0047900D01*
X0082239Y0046543D02*
X0073500Y0046543D01*
X0075976Y0045345D02*
X0081024Y0045345D01*
X0079100Y0044146D02*
X0077900Y0044146D01*
X0077900Y0042948D02*
X0079100Y0042948D01*
X0079100Y0041749D02*
X0077900Y0041749D01*
X0077900Y0040551D02*
X0079100Y0040551D01*
X0079100Y0039352D02*
X0077900Y0039352D01*
X0078500Y0038500D02*
X0081000Y0038500D01*
X0081000Y0011000D01*
X0084011Y0014184D02*
X0074989Y0014184D01*
X0075582Y0015382D02*
X0083418Y0015382D01*
X0083390Y0016581D02*
X0075610Y0016581D01*
X0075610Y0017779D02*
X0083390Y0017779D01*
X0083390Y0018978D02*
X0075610Y0018978D01*
X0075610Y0020176D02*
X0083390Y0020176D01*
X0083390Y0021375D02*
X0075610Y0021375D01*
X0075600Y0022573D02*
X0083400Y0022573D01*
X0083966Y0023772D02*
X0075034Y0023772D01*
X0066800Y0024970D02*
X0084208Y0024970D01*
X0084208Y0026169D02*
X0066800Y0026169D01*
X0066800Y0027367D02*
X0084208Y0027367D01*
X0084208Y0028566D02*
X0066800Y0028566D01*
X0066800Y0029764D02*
X0084208Y0029764D01*
X0084208Y0030963D02*
X0073419Y0030963D01*
X0076483Y0032161D02*
X0080517Y0032161D01*
X0079100Y0033360D02*
X0077900Y0033360D01*
X0077900Y0034558D02*
X0079100Y0034558D01*
X0079100Y0035757D02*
X0077900Y0035757D01*
X0077900Y0036955D02*
X0079100Y0036955D01*
X0083618Y0040469D02*
X0086000Y0040469D01*
X0089839Y0040551D02*
X0094000Y0040551D01*
X0094000Y0039352D02*
X0090463Y0039352D01*
X0091408Y0038154D02*
X0094000Y0038154D01*
X0094000Y0036955D02*
X0091808Y0036955D01*
X0091808Y0035757D02*
X0094000Y0035757D01*
X0094000Y0034558D02*
X0091808Y0034558D01*
X0091808Y0033360D02*
X0094000Y0033360D01*
X0094000Y0032161D02*
X0091808Y0032161D01*
X0091808Y0030963D02*
X0094000Y0030963D01*
X0094389Y0029764D02*
X0091808Y0029764D01*
X0091808Y0028566D02*
X0095762Y0028566D01*
X0095900Y0027367D02*
X0091808Y0027367D01*
X0091808Y0026169D02*
X0095900Y0026169D01*
X0095900Y0024970D02*
X0091808Y0024970D01*
X0093144Y0023772D02*
X0095900Y0023772D01*
X0095900Y0022573D02*
X0093711Y0022573D01*
X0093720Y0021375D02*
X0095900Y0021375D01*
X0096152Y0020176D02*
X0093720Y0020176D01*
X0093720Y0018978D02*
X0096931Y0018978D01*
X0099320Y0017779D02*
X0093720Y0017779D01*
X0093720Y0016581D02*
X0098560Y0016581D01*
X0098413Y0015382D02*
X0093692Y0015382D01*
X0093099Y0014184D02*
X0098413Y0014184D01*
X0098413Y0012985D02*
X0065056Y0012985D01*
X0065660Y0014184D02*
X0065900Y0014184D01*
X0063858Y0011787D02*
X0098413Y0011787D01*
X0098413Y0010588D02*
X0038063Y0010588D01*
X0037795Y0010320D02*
X0039680Y0012205D01*
X0040700Y0014667D01*
X0040700Y0017333D01*
X0039680Y0019795D01*
X0037795Y0021680D01*
X0037334Y0021871D01*
X0037453Y0021957D01*
X0038043Y0022547D01*
X0038533Y0023222D01*
X0038912Y0023966D01*
X0039169Y0024759D01*
X0039300Y0025583D01*
X0039300Y0025600D01*
X0034400Y0025600D01*
X0034400Y0026400D01*
X0039300Y0026400D01*
X0039300Y0026417D01*
X0039169Y0027241D01*
X0038912Y0028034D01*
X0038533Y0028778D01*
X0038043Y0029453D01*
X0037453Y0030043D01*
X0036778Y0030533D01*
X0036034Y0030912D01*
X0035241Y0031169D01*
X0034417Y0031300D01*
X0034400Y0031300D01*
X0034400Y0026400D01*
X0033600Y0026400D01*
X0033600Y0031300D01*
X0033583Y0031300D01*
X0032759Y0031169D01*
X0031966Y0030912D01*
X0031222Y0030533D01*
X0030547Y0030043D01*
X0029957Y0029453D01*
X0029467Y0028778D01*
X0029088Y0028034D01*
X0028830Y0027241D01*
X0028700Y0026417D01*
X0028700Y0026400D01*
X0033600Y0026400D01*
X0033600Y0025600D01*
X0028700Y0025600D01*
X0028700Y0025583D01*
X0028830Y0024759D01*
X0029088Y0023966D01*
X0029467Y0023222D01*
X0029957Y0022547D01*
X0030547Y0021957D01*
X0030666Y0021871D01*
X0030205Y0021680D01*
X0028320Y0019795D01*
X0027300Y0017333D01*
X0027300Y0014667D01*
X0028320Y0012205D01*
X0030205Y0010320D01*
X0032667Y0009300D01*
X0035333Y0009300D01*
X0037795Y0010320D01*
X0039262Y0011787D02*
X0058142Y0011787D01*
X0056944Y0012985D02*
X0040003Y0012985D01*
X0040500Y0014184D02*
X0056340Y0014184D01*
X0056000Y0015382D02*
X0040700Y0015382D01*
X0040700Y0016581D02*
X0056000Y0016581D01*
X0056325Y0017779D02*
X0040515Y0017779D01*
X0040019Y0018978D02*
X0056800Y0018978D01*
X0056941Y0020176D02*
X0039299Y0020176D01*
X0038101Y0021375D02*
X0057438Y0021375D01*
X0058651Y0022573D02*
X0038061Y0022573D01*
X0038813Y0023772D02*
X0059200Y0023772D01*
X0059200Y0024970D02*
X0039203Y0024970D01*
X0039128Y0027367D02*
X0059200Y0027367D01*
X0059200Y0026169D02*
X0034400Y0026169D01*
X0033600Y0026169D02*
X0005902Y0026169D01*
X0005896Y0027367D02*
X0028872Y0027367D01*
X0029359Y0028566D02*
X0005890Y0028566D01*
X0005884Y0029764D02*
X0030269Y0029764D01*
X0032123Y0030963D02*
X0005878Y0030963D01*
X0005872Y0032161D02*
X0058737Y0032161D01*
X0058425Y0033360D02*
X0005867Y0033360D01*
X0005861Y0034558D02*
X0058425Y0034558D01*
X0058456Y0035757D02*
X0005855Y0035757D01*
X0005849Y0036955D02*
X0059051Y0036955D01*
X0059825Y0038154D02*
X0005843Y0038154D01*
X0005837Y0039352D02*
X0059825Y0039352D01*
X0060005Y0040551D02*
X0005831Y0040551D01*
X0005826Y0041749D02*
X0066500Y0041749D01*
X0066500Y0040551D02*
X0065995Y0040551D01*
X0066175Y0039352D02*
X0066687Y0039352D01*
X0066175Y0038154D02*
X0067396Y0038154D01*
X0063000Y0039352D02*
X0063000Y0039352D01*
X0063000Y0040551D02*
X0063000Y0040551D01*
X0063000Y0034299D02*
X0073382Y0034563D01*
X0059200Y0030963D02*
X0035877Y0030963D01*
X0034400Y0030963D02*
X0033600Y0030963D01*
X0033600Y0029764D02*
X0034400Y0029764D01*
X0034400Y0028566D02*
X0033600Y0028566D01*
X0033600Y0027367D02*
X0034400Y0027367D01*
X0037731Y0029764D02*
X0059200Y0029764D01*
X0059200Y0028566D02*
X0038641Y0028566D01*
X0028797Y0024970D02*
X0005907Y0024970D01*
X0005913Y0023772D02*
X0029187Y0023772D01*
X0029939Y0022573D02*
X0005919Y0022573D01*
X0005925Y0021375D02*
X0029899Y0021375D01*
X0028701Y0020176D02*
X0005931Y0020176D01*
X0005937Y0018978D02*
X0027981Y0018978D01*
X0027485Y0017779D02*
X0005943Y0017779D01*
X0005948Y0016581D02*
X0027300Y0016581D01*
X0027300Y0015382D02*
X0005954Y0015382D01*
X0005960Y0014184D02*
X0027500Y0014184D01*
X0027997Y0012985D02*
X0005966Y0012985D01*
X0005972Y0011787D02*
X0028738Y0011787D01*
X0029937Y0010588D02*
X0005978Y0010588D01*
X0005983Y0009390D02*
X0032451Y0009390D01*
X0035549Y0009390D02*
X0098413Y0009390D01*
X0098413Y0008191D02*
X0005989Y0008191D01*
X0005995Y0006993D02*
X0098413Y0006993D01*
X0099500Y0021500D02*
X0124000Y0021500D01*
X0124000Y0058000D01*
X0086000Y0058000D01*
X0086000Y0096000D01*
X0069600Y0096000D01*
X0050000Y0096000D01*
X0050000Y0114000D01*
X0041000Y0114000D01*
X0036125Y0113875D02*
X0036125Y0106900D01*
X0036966Y0106900D01*
X0037007Y0106801D01*
X0037307Y0106500D01*
X0033953Y0106500D01*
X0033500Y0106312D01*
X0033047Y0106500D01*
X0029693Y0106500D01*
X0029993Y0106801D01*
X0030034Y0106900D01*
X0030875Y0106900D01*
X0030875Y0113875D01*
X0030450Y0113875D01*
X0030450Y0114125D01*
X0030875Y0114125D01*
X0030875Y0113875D01*
X0031125Y0113875D01*
X0031125Y0114125D01*
X0034050Y0114125D01*
X0035875Y0114125D01*
X0035875Y0113875D01*
X0036125Y0113875D01*
X0036125Y0113660D02*
X0035875Y0113660D01*
X0035875Y0113875D02*
X0035875Y0106900D01*
X0034339Y0106900D01*
X0033932Y0107009D01*
X0033568Y0107220D01*
X0033500Y0107287D01*
X0033432Y0107220D01*
X0033068Y0107009D01*
X0032661Y0106900D01*
X0031125Y0106900D01*
X0031125Y0113875D01*
X0035875Y0113875D01*
X0035875Y0112462D02*
X0036125Y0112462D01*
X0036125Y0111263D02*
X0035875Y0111263D01*
X0035875Y0110065D02*
X0036125Y0110065D01*
X0036125Y0108866D02*
X0035875Y0108866D01*
X0035875Y0107668D02*
X0036125Y0107668D01*
X0033878Y0106469D02*
X0033122Y0106469D01*
X0031125Y0107668D02*
X0030875Y0107668D01*
X0030875Y0108866D02*
X0031125Y0108866D01*
X0031125Y0110065D02*
X0030875Y0110065D01*
X0030875Y0111263D02*
X0031125Y0111263D01*
X0031125Y0112462D02*
X0030875Y0112462D01*
X0030875Y0113660D02*
X0031125Y0113660D01*
X0031000Y0114000D02*
X0030500Y0114000D01*
X0017807Y0106000D02*
X0017007Y0105199D01*
X0016550Y0104097D01*
X0016550Y0091903D01*
X0017007Y0090801D01*
X0017851Y0089957D01*
X0018953Y0089500D01*
X0023047Y0089500D01*
X0023500Y0089688D01*
X0023953Y0089500D01*
X0028047Y0089500D01*
X0028500Y0089688D01*
X0028953Y0089500D01*
X0032400Y0089500D01*
X0032400Y0085284D01*
X0032569Y0084876D01*
X0031460Y0084876D01*
X0030770Y0085161D01*
X0028474Y0085161D01*
X0027654Y0084822D01*
X0026833Y0085161D01*
X0024537Y0085161D01*
X0023606Y0084776D01*
X0020768Y0084776D01*
X0020724Y0084880D01*
X0019880Y0085724D01*
X0018778Y0086181D01*
X0013222Y0086181D01*
X0012120Y0085724D01*
X0011276Y0084880D01*
X0010819Y0083778D01*
X0010819Y0078222D01*
X0011276Y0077120D01*
X0011895Y0076500D01*
X0005887Y0076500D01*
X0005657Y0076404D01*
X0005500Y0108500D01*
X0005500Y0121000D01*
X0016924Y0121000D01*
X0016550Y0120097D01*
X0016550Y0107903D01*
X0017007Y0106801D01*
X0017807Y0106000D01*
X0017338Y0106469D02*
X0005510Y0106469D01*
X0005516Y0105270D02*
X0017078Y0105270D01*
X0016550Y0104072D02*
X0005522Y0104072D01*
X0005527Y0102873D02*
X0016550Y0102873D01*
X0016550Y0101675D02*
X0005533Y0101675D01*
X0005539Y0100476D02*
X0016550Y0100476D01*
X0016550Y0099278D02*
X0005545Y0099278D01*
X0005551Y0098079D02*
X0016550Y0098079D01*
X0016550Y0096881D02*
X0005557Y0096881D01*
X0005563Y0095682D02*
X0016550Y0095682D01*
X0016550Y0094484D02*
X0005568Y0094484D01*
X0005574Y0093285D02*
X0016550Y0093285D01*
X0016550Y0092087D02*
X0005580Y0092087D01*
X0005586Y0090888D02*
X0016970Y0090888D01*
X0018495Y0089690D02*
X0005592Y0089690D01*
X0005598Y0088491D02*
X0032400Y0088491D01*
X0032400Y0087293D02*
X0005603Y0087293D01*
X0005609Y0086094D02*
X0013013Y0086094D01*
X0011291Y0084896D02*
X0005615Y0084896D01*
X0005621Y0083697D02*
X0010819Y0083697D01*
X0010819Y0082499D02*
X0005627Y0082499D01*
X0005633Y0081300D02*
X0010819Y0081300D01*
X0010819Y0080102D02*
X0005639Y0080102D01*
X0005644Y0078903D02*
X0010819Y0078903D01*
X0011033Y0077705D02*
X0005650Y0077705D01*
X0005656Y0076506D02*
X0011889Y0076506D01*
X0016919Y0075308D02*
X0021909Y0075308D01*
X0021909Y0074109D02*
X0017479Y0074109D01*
X0017484Y0072911D02*
X0021909Y0072911D01*
X0021909Y0071712D02*
X0017484Y0071712D01*
X0017484Y0070514D02*
X0021909Y0070514D01*
X0021909Y0069315D02*
X0017484Y0069315D01*
X0017484Y0068117D02*
X0021909Y0068117D01*
X0021909Y0066918D02*
X0017484Y0066918D01*
X0017199Y0065720D02*
X0021909Y0065720D01*
X0021909Y0064521D02*
X0017308Y0064521D01*
X0017484Y0063323D02*
X0021909Y0063323D01*
X0021909Y0062124D02*
X0017484Y0062124D01*
X0017484Y0060926D02*
X0021909Y0060926D01*
X0021920Y0059727D02*
X0017484Y0059727D01*
X0017484Y0058529D02*
X0022416Y0058529D01*
X0023793Y0057330D02*
X0017484Y0057330D01*
X0017370Y0056132D02*
X0037260Y0056132D01*
X0037974Y0054933D02*
X0017138Y0054933D01*
X0017484Y0053734D02*
X0038552Y0053734D01*
X0038546Y0052536D02*
X0017484Y0052536D01*
X0017484Y0051337D02*
X0038546Y0051337D01*
X0038546Y0048940D02*
X0017484Y0048940D01*
X0017484Y0047742D02*
X0038546Y0047742D01*
X0038613Y0046543D02*
X0017484Y0046543D01*
X0017484Y0050139D02*
X0043546Y0050139D01*
X0043546Y0048940D02*
X0044746Y0048940D01*
X0044746Y0047742D02*
X0043546Y0047742D01*
X0043546Y0046543D02*
X0044746Y0046543D01*
X0044746Y0050139D02*
X0049499Y0050139D01*
X0049746Y0048940D02*
X0050554Y0048940D01*
X0059000Y0058000D02*
X0086000Y0058000D01*
X0089600Y0061600D02*
X0089600Y0096716D01*
X0089052Y0098039D01*
X0088039Y0099052D01*
X0086716Y0099600D01*
X0085284Y0099600D01*
X0077599Y0099600D01*
X0077555Y0099644D01*
X0077683Y0099953D01*
X0077800Y0100541D01*
X0077800Y0100800D01*
X0069800Y0100800D01*
X0069800Y0101200D01*
X0077800Y0101200D01*
X0077800Y0101459D01*
X0077683Y0102047D01*
X0077555Y0102356D01*
X0078524Y0103325D01*
X0079200Y0104957D01*
X0079200Y0107043D01*
X0078660Y0108346D01*
X0141000Y0108000D01*
X0141000Y0006000D01*
X0118433Y0006000D01*
X0118587Y0006372D01*
X0118587Y0016227D01*
X0118130Y0017329D01*
X0117559Y0017900D01*
X0124716Y0017900D01*
X0126039Y0018448D01*
X0127052Y0019461D01*
X0127600Y0020784D01*
X0127600Y0058716D01*
X0127052Y0060039D01*
X0126039Y0061052D01*
X0124716Y0061600D01*
X0089600Y0061600D01*
X0089600Y0062124D02*
X0141000Y0062124D01*
X0141000Y0060926D02*
X0126166Y0060926D01*
X0127181Y0059727D02*
X0141000Y0059727D01*
X0141000Y0058529D02*
X0127600Y0058529D01*
X0127600Y0057330D02*
X0141000Y0057330D01*
X0141000Y0056132D02*
X0127600Y0056132D01*
X0127600Y0054933D02*
X0141000Y0054933D01*
X0141000Y0053734D02*
X0127600Y0053734D01*
X0127600Y0052536D02*
X0141000Y0052536D01*
X0141000Y0051337D02*
X0127600Y0051337D01*
X0127600Y0050139D02*
X0141000Y0050139D01*
X0141000Y0048940D02*
X0127600Y0048940D01*
X0127600Y0047742D02*
X0141000Y0047742D01*
X0141000Y0046543D02*
X0127600Y0046543D01*
X0127600Y0045345D02*
X0141000Y0045345D01*
X0141000Y0044146D02*
X0127600Y0044146D01*
X0127600Y0042948D02*
X0141000Y0042948D01*
X0141000Y0041749D02*
X0127600Y0041749D01*
X0127600Y0040551D02*
X0141000Y0040551D01*
X0141000Y0039352D02*
X0127600Y0039352D01*
X0127600Y0038154D02*
X0141000Y0038154D01*
X0141000Y0036955D02*
X0127600Y0036955D01*
X0127600Y0035757D02*
X0141000Y0035757D01*
X0141000Y0034558D02*
X0127600Y0034558D01*
X0127600Y0033360D02*
X0141000Y0033360D01*
X0141000Y0032161D02*
X0127600Y0032161D01*
X0127600Y0030963D02*
X0141000Y0030963D01*
X0141000Y0029764D02*
X0127600Y0029764D01*
X0127600Y0028566D02*
X0141000Y0028566D01*
X0141000Y0027367D02*
X0127600Y0027367D01*
X0127600Y0026169D02*
X0141000Y0026169D01*
X0141000Y0024970D02*
X0127600Y0024970D01*
X0127600Y0023772D02*
X0141000Y0023772D01*
X0141000Y0022573D02*
X0127600Y0022573D01*
X0127600Y0021375D02*
X0141000Y0021375D01*
X0141000Y0020176D02*
X0127348Y0020176D01*
X0126569Y0018978D02*
X0141000Y0018978D01*
X0141000Y0017779D02*
X0117680Y0017779D01*
X0118440Y0016581D02*
X0141000Y0016581D01*
X0141000Y0015382D02*
X0118587Y0015382D01*
X0118587Y0014184D02*
X0141000Y0014184D01*
X0141000Y0012985D02*
X0118587Y0012985D01*
X0118587Y0011787D02*
X0141000Y0011787D01*
X0141000Y0010588D02*
X0118587Y0010588D01*
X0118587Y0009390D02*
X0141000Y0009390D01*
X0141000Y0008191D02*
X0118587Y0008191D01*
X0118587Y0006993D02*
X0141000Y0006993D01*
X0120400Y0025100D02*
X0103100Y0025100D01*
X0103100Y0028591D01*
X0103499Y0028757D01*
X0104343Y0029601D01*
X0104715Y0030499D01*
X0104820Y0030318D01*
X0105118Y0030020D01*
X0105482Y0029809D01*
X0105889Y0029700D01*
X0107900Y0029700D01*
X0107900Y0035100D01*
X0109100Y0035100D01*
X0109100Y0029700D01*
X0111111Y0029700D01*
X0111518Y0029809D01*
X0111882Y0030020D01*
X0112180Y0030318D01*
X0112285Y0030499D01*
X0112657Y0029601D01*
X0113501Y0028757D01*
X0114603Y0028300D01*
X0120400Y0028300D01*
X0120400Y0025100D01*
X0120400Y0026169D02*
X0103100Y0026169D01*
X0103100Y0027367D02*
X0120400Y0027367D01*
X0113962Y0028566D02*
X0103100Y0028566D01*
X0104411Y0029764D02*
X0105649Y0029764D01*
X0107900Y0029764D02*
X0109100Y0029764D01*
X0109100Y0030963D02*
X0107900Y0030963D01*
X0107900Y0032161D02*
X0109100Y0032161D01*
X0109100Y0033360D02*
X0107900Y0033360D01*
X0107900Y0034558D02*
X0109100Y0034558D01*
X0109100Y0036955D02*
X0107900Y0036955D01*
X0107900Y0038154D02*
X0109100Y0038154D01*
X0109100Y0039352D02*
X0107900Y0039352D01*
X0107900Y0040551D02*
X0109100Y0040551D01*
X0108500Y0043138D02*
X0108500Y0045000D01*
X0106150Y0046543D02*
X0113300Y0046543D01*
X0113300Y0045345D02*
X0105662Y0045345D01*
X0104747Y0044146D02*
X0113300Y0044146D01*
X0113300Y0042948D02*
X0104750Y0042948D01*
X0104645Y0041749D02*
X0112636Y0041749D01*
X0111000Y0045000D02*
X0111000Y0046000D01*
X0113300Y0047742D02*
X0106150Y0047742D01*
X0091075Y0042948D02*
X0091075Y0042948D01*
X0091075Y0041749D02*
X0091075Y0041749D01*
X0099400Y0035700D02*
X0099500Y0035700D01*
X0099500Y0021500D01*
X0111351Y0029764D02*
X0112589Y0029764D01*
X0136000Y0046000D02*
X0136000Y0051000D01*
X0141000Y0063323D02*
X0129264Y0063323D01*
X0129498Y0063479D02*
X0129921Y0063902D01*
X0130254Y0064400D01*
X0130483Y0064953D01*
X0130600Y0065541D01*
X0130600Y0065800D01*
X0122600Y0065800D01*
X0122600Y0066200D01*
X0130600Y0066200D01*
X0130600Y0066459D01*
X0130483Y0067047D01*
X0130254Y0067600D01*
X0129921Y0068098D01*
X0129519Y0068500D01*
X0129921Y0068902D01*
X0130254Y0069400D01*
X0130483Y0069953D01*
X0130600Y0070541D01*
X0130600Y0070800D01*
X0122600Y0070800D01*
X0122600Y0071200D01*
X0130600Y0071200D01*
X0130600Y0071459D01*
X0130483Y0072047D01*
X0130355Y0072356D01*
X0131324Y0073325D01*
X0132000Y0074957D01*
X0132000Y0077043D01*
X0131397Y0078500D01*
X0132000Y0079957D01*
X0132000Y0082043D01*
X0131397Y0083500D01*
X0132000Y0084957D01*
X0132000Y0087043D01*
X0131397Y0088500D01*
X0132000Y0089957D01*
X0132000Y0092043D01*
X0131397Y0093500D01*
X0132000Y0094957D01*
X0132000Y0097043D01*
X0131324Y0098675D01*
X0130355Y0099644D01*
X0130483Y0099953D01*
X0130600Y0100541D01*
X0130600Y0100800D01*
X0122600Y0100800D01*
X0122600Y0101200D01*
X0130600Y0101200D01*
X0130600Y0101459D01*
X0130483Y0102047D01*
X0130254Y0102600D01*
X0129921Y0103098D01*
X0129498Y0103521D01*
X0129000Y0103854D01*
X0128447Y0104083D01*
X0127859Y0104200D01*
X0122600Y0104200D01*
X0122600Y0101200D01*
X0122200Y0101200D01*
X0122200Y0104200D01*
X0116941Y0104200D01*
X0116353Y0104083D01*
X0115800Y0103854D01*
X0115302Y0103521D01*
X0114879Y0103098D01*
X0114546Y0102600D01*
X0114317Y0102047D01*
X0114200Y0101459D01*
X0114200Y0101200D01*
X0122200Y0101200D01*
X0122200Y0100800D01*
X0114200Y0100800D01*
X0114200Y0100541D01*
X0114317Y0099953D01*
X0114445Y0099644D01*
X0113476Y0098675D01*
X0112800Y0097043D01*
X0112800Y0094957D01*
X0113403Y0093500D01*
X0112800Y0092043D01*
X0112800Y0091181D01*
X0108222Y0091181D01*
X0107120Y0090724D01*
X0106276Y0089880D01*
X0105819Y0088778D01*
X0105819Y0083222D01*
X0106276Y0082120D01*
X0107120Y0081276D01*
X0107500Y0081118D01*
X0107500Y0075304D01*
X0108033Y0074017D01*
X0109017Y0073033D01*
X0110304Y0072500D01*
X0114301Y0072500D01*
X0114445Y0072356D01*
X0114317Y0072047D01*
X0114200Y0071459D01*
X0114200Y0071200D01*
X0122200Y0071200D01*
X0122200Y0070800D01*
X0114200Y0070800D01*
X0114200Y0070541D01*
X0114317Y0069953D01*
X0114546Y0069400D01*
X0114879Y0068902D01*
X0115281Y0068500D01*
X0114879Y0068098D01*
X0114546Y0067600D01*
X0114317Y0067047D01*
X0114200Y0066459D01*
X0114200Y0066200D01*
X0122200Y0066200D01*
X0122200Y0070800D01*
X0122600Y0070800D01*
X0122600Y0069200D01*
X0122600Y0066200D01*
X0122200Y0066200D01*
X0122200Y0065800D01*
X0122600Y0065800D01*
X0122600Y0062800D01*
X0127859Y0062800D01*
X0128447Y0062917D01*
X0129000Y0063146D01*
X0129498Y0063479D01*
X0130304Y0064521D02*
X0141000Y0064521D01*
X0141000Y0065720D02*
X0130600Y0065720D01*
X0130509Y0066918D02*
X0141000Y0066918D01*
X0141000Y0068117D02*
X0129903Y0068117D01*
X0130197Y0069315D02*
X0141000Y0069315D01*
X0141000Y0070514D02*
X0130595Y0070514D01*
X0130550Y0071712D02*
X0141000Y0071712D01*
X0141000Y0072911D02*
X0130910Y0072911D01*
X0131649Y0074109D02*
X0141000Y0074109D01*
X0141000Y0075308D02*
X0132000Y0075308D01*
X0132000Y0076506D02*
X0141000Y0076506D01*
X0141000Y0077705D02*
X0131726Y0077705D01*
X0131564Y0078903D02*
X0141000Y0078903D01*
X0141000Y0080102D02*
X0132000Y0080102D01*
X0132000Y0081300D02*
X0141000Y0081300D01*
X0141000Y0082499D02*
X0131811Y0082499D01*
X0132000Y0082654D02*
X0132000Y0101000D01*
X0122400Y0101000D01*
X0122200Y0101675D02*
X0122600Y0101675D01*
X0122600Y0102873D02*
X0122200Y0102873D01*
X0122200Y0104072D02*
X0122600Y0104072D01*
X0128474Y0104072D02*
X0141000Y0104072D01*
X0141000Y0105270D02*
X0079200Y0105270D01*
X0079200Y0106469D02*
X0141000Y0106469D01*
X0141000Y0107668D02*
X0078941Y0107668D01*
X0078833Y0104072D02*
X0116326Y0104072D01*
X0114729Y0102873D02*
X0078073Y0102873D01*
X0077757Y0101675D02*
X0114243Y0101675D01*
X0114213Y0100476D02*
X0077787Y0100476D01*
X0069400Y0100800D02*
X0061400Y0100800D01*
X0061400Y0100541D01*
X0061517Y0099953D01*
X0061645Y0099644D01*
X0061601Y0099600D01*
X0053600Y0099600D01*
X0053600Y0108486D01*
X0060581Y0108447D01*
X0060000Y0107043D01*
X0060000Y0104957D01*
X0060676Y0103325D01*
X0061645Y0102356D01*
X0061517Y0102047D01*
X0061400Y0101459D01*
X0061400Y0101200D01*
X0069400Y0101200D01*
X0069400Y0100800D01*
X0061413Y0100476D02*
X0053600Y0100476D01*
X0053600Y0101675D02*
X0061443Y0101675D01*
X0061127Y0102873D02*
X0053600Y0102873D01*
X0053600Y0104072D02*
X0060367Y0104072D01*
X0060000Y0105270D02*
X0053600Y0105270D01*
X0053600Y0106469D02*
X0060000Y0106469D01*
X0060259Y0107668D02*
X0053600Y0107668D01*
X0041000Y0098000D02*
X0041000Y0091000D01*
X0069600Y0091000D01*
X0069600Y0086000D02*
X0036000Y0086000D01*
X0036000Y0098000D01*
X0032400Y0086094D02*
X0018987Y0086094D01*
X0020709Y0084896D02*
X0023896Y0084896D01*
X0027474Y0084896D02*
X0027833Y0084896D01*
X0031411Y0084896D02*
X0032561Y0084896D01*
X0029622Y0081276D02*
X0036000Y0081276D01*
X0039150Y0081256D01*
X0044331Y0081300D02*
X0060000Y0081300D01*
X0060000Y0082043D02*
X0060000Y0079957D01*
X0060603Y0078500D01*
X0060000Y0077043D01*
X0060000Y0074957D01*
X0060676Y0073325D01*
X0061645Y0072356D01*
X0061517Y0072047D01*
X0061400Y0071459D01*
X0061400Y0071200D01*
X0069400Y0071200D01*
X0069400Y0070800D01*
X0061400Y0070800D01*
X0061400Y0070541D01*
X0061517Y0069953D01*
X0061746Y0069400D01*
X0062079Y0068902D01*
X0062481Y0068500D01*
X0062079Y0068098D01*
X0061746Y0067600D01*
X0061517Y0067047D01*
X0061400Y0066459D01*
X0061400Y0066200D01*
X0069400Y0066200D01*
X0069400Y0070800D01*
X0069800Y0070800D01*
X0069800Y0071200D01*
X0077800Y0071200D01*
X0077800Y0071459D01*
X0077683Y0072047D01*
X0077555Y0072356D01*
X0078524Y0073325D01*
X0079200Y0074957D01*
X0079200Y0077043D01*
X0078597Y0078500D01*
X0079200Y0079957D01*
X0079200Y0082043D01*
X0078597Y0083500D01*
X0079200Y0084957D01*
X0079200Y0087043D01*
X0078597Y0088500D01*
X0079200Y0089957D01*
X0079200Y0092043D01*
X0079052Y0092400D01*
X0082400Y0092400D01*
X0082400Y0061600D01*
X0063841Y0061600D01*
X0063724Y0061880D01*
X0062880Y0062724D01*
X0061778Y0063181D01*
X0057700Y0063181D01*
X0057700Y0069722D01*
X0057721Y0069776D01*
X0057700Y0070556D01*
X0057700Y0071335D01*
X0057678Y0071389D01*
X0057676Y0071446D01*
X0057359Y0072159D01*
X0057061Y0072879D01*
X0057020Y0072920D01*
X0056996Y0072973D01*
X0056430Y0073509D01*
X0055879Y0074061D01*
X0055826Y0074083D01*
X0055784Y0074122D01*
X0055056Y0074402D01*
X0054335Y0074700D01*
X0054278Y0074700D01*
X0054224Y0074721D01*
X0053444Y0074700D01*
X0052665Y0074700D01*
X0052611Y0074678D01*
X0051626Y0074652D01*
X0050923Y0074633D01*
X0050689Y0075199D01*
X0049845Y0076043D01*
X0048742Y0076500D01*
X0047807Y0076500D01*
X0047274Y0077786D01*
X0046290Y0078770D01*
X0045003Y0079303D01*
X0044331Y0079303D01*
X0044331Y0082400D01*
X0060148Y0082400D01*
X0060000Y0082043D01*
X0060000Y0080102D02*
X0044331Y0080102D01*
X0045969Y0078903D02*
X0060436Y0078903D01*
X0060274Y0077705D02*
X0047308Y0077705D01*
X0047804Y0076506D02*
X0060000Y0076506D01*
X0060000Y0075308D02*
X0050581Y0075308D01*
X0055798Y0074109D02*
X0060351Y0074109D01*
X0061090Y0072911D02*
X0057029Y0072911D01*
X0057558Y0071712D02*
X0061450Y0071712D01*
X0061405Y0070514D02*
X0057701Y0070514D01*
X0057700Y0069315D02*
X0061803Y0069315D01*
X0062097Y0068117D02*
X0057700Y0068117D01*
X0057700Y0066918D02*
X0061491Y0066918D01*
X0061400Y0065800D02*
X0061400Y0065541D01*
X0061517Y0064953D01*
X0061746Y0064400D01*
X0062079Y0063902D01*
X0062502Y0063479D01*
X0063000Y0063146D01*
X0063553Y0062917D01*
X0064141Y0062800D01*
X0069400Y0062800D01*
X0069400Y0065800D01*
X0069800Y0065800D01*
X0069800Y0066200D01*
X0077800Y0066200D01*
X0077800Y0066459D01*
X0077683Y0067047D01*
X0077454Y0067600D01*
X0077121Y0068098D01*
X0076719Y0068500D01*
X0077121Y0068902D01*
X0077454Y0069400D01*
X0077683Y0069953D01*
X0077800Y0070541D01*
X0077800Y0070800D01*
X0069800Y0070800D01*
X0069800Y0067800D01*
X0069800Y0066200D01*
X0069400Y0066200D01*
X0069400Y0065800D01*
X0061400Y0065800D01*
X0061400Y0065720D02*
X0057700Y0065720D01*
X0057700Y0064521D02*
X0061696Y0064521D01*
X0062736Y0063323D02*
X0057700Y0063323D01*
X0063481Y0062124D02*
X0082400Y0062124D01*
X0082400Y0063323D02*
X0076464Y0063323D01*
X0076698Y0063479D02*
X0077121Y0063902D01*
X0077454Y0064400D01*
X0077683Y0064953D01*
X0077800Y0065541D01*
X0077800Y0065800D01*
X0069800Y0065800D01*
X0069800Y0062800D01*
X0075059Y0062800D01*
X0075647Y0062917D01*
X0076200Y0063146D01*
X0076698Y0063479D01*
X0077504Y0064521D02*
X0082400Y0064521D01*
X0082400Y0065720D02*
X0077800Y0065720D01*
X0077709Y0066918D02*
X0082400Y0066918D01*
X0082400Y0068117D02*
X0077103Y0068117D01*
X0077397Y0069315D02*
X0082400Y0069315D01*
X0082400Y0070514D02*
X0077795Y0070514D01*
X0077750Y0071712D02*
X0082400Y0071712D01*
X0082400Y0072911D02*
X0078110Y0072911D01*
X0078849Y0074109D02*
X0082400Y0074109D01*
X0082400Y0075308D02*
X0079200Y0075308D01*
X0079200Y0076506D02*
X0082400Y0076506D01*
X0082400Y0077705D02*
X0078926Y0077705D01*
X0078764Y0078903D02*
X0082400Y0078903D01*
X0082400Y0080102D02*
X0079200Y0080102D01*
X0079200Y0081300D02*
X0082400Y0081300D01*
X0082400Y0082499D02*
X0079011Y0082499D01*
X0078678Y0083697D02*
X0082400Y0083697D01*
X0082400Y0084896D02*
X0079175Y0084896D01*
X0079200Y0086094D02*
X0082400Y0086094D01*
X0082400Y0087293D02*
X0079097Y0087293D01*
X0078600Y0088491D02*
X0082400Y0088491D01*
X0082400Y0089690D02*
X0079089Y0089690D01*
X0079200Y0090888D02*
X0082400Y0090888D01*
X0082400Y0092087D02*
X0079182Y0092087D01*
X0087494Y0099278D02*
X0114079Y0099278D01*
X0113229Y0098079D02*
X0089012Y0098079D01*
X0089532Y0096881D02*
X0112800Y0096881D01*
X0112800Y0095682D02*
X0089600Y0095682D01*
X0089600Y0094484D02*
X0112996Y0094484D01*
X0113315Y0093285D02*
X0089600Y0093285D01*
X0089600Y0092087D02*
X0112818Y0092087D01*
X0107515Y0090888D02*
X0089600Y0090888D01*
X0089600Y0089690D02*
X0106197Y0089690D01*
X0105819Y0088491D02*
X0089600Y0088491D01*
X0089600Y0087293D02*
X0105819Y0087293D01*
X0105819Y0086094D02*
X0089600Y0086094D01*
X0089600Y0084896D02*
X0105819Y0084896D01*
X0105819Y0083697D02*
X0089600Y0083697D01*
X0089600Y0082499D02*
X0106119Y0082499D01*
X0107095Y0081300D02*
X0089600Y0081300D01*
X0089600Y0080102D02*
X0107500Y0080102D01*
X0107500Y0078903D02*
X0089600Y0078903D01*
X0089600Y0077705D02*
X0107500Y0077705D01*
X0107500Y0076506D02*
X0089600Y0076506D01*
X0089600Y0075308D02*
X0107500Y0075308D01*
X0107995Y0074109D02*
X0089600Y0074109D01*
X0089600Y0072911D02*
X0109312Y0072911D01*
X0114250Y0071712D02*
X0089600Y0071712D01*
X0089600Y0070514D02*
X0114205Y0070514D01*
X0114603Y0069315D02*
X0089600Y0069315D01*
X0089600Y0068117D02*
X0114897Y0068117D01*
X0114291Y0066918D02*
X0089600Y0066918D01*
X0089600Y0065720D02*
X0114200Y0065720D01*
X0114200Y0065800D02*
X0114200Y0065541D01*
X0114317Y0064953D01*
X0114546Y0064400D01*
X0114879Y0063902D01*
X0115302Y0063479D01*
X0115800Y0063146D01*
X0116353Y0062917D01*
X0116941Y0062800D01*
X0122200Y0062800D01*
X0122200Y0065800D01*
X0114200Y0065800D01*
X0114496Y0064521D02*
X0089600Y0064521D01*
X0089600Y0063323D02*
X0115536Y0063323D01*
X0122200Y0063323D02*
X0122600Y0063323D01*
X0122600Y0064521D02*
X0122200Y0064521D01*
X0122200Y0065720D02*
X0122600Y0065720D01*
X0122600Y0066918D02*
X0122200Y0066918D01*
X0122200Y0068117D02*
X0122600Y0068117D01*
X0122600Y0069315D02*
X0122200Y0069315D01*
X0122200Y0070514D02*
X0122600Y0070514D01*
X0131478Y0083697D02*
X0141000Y0083697D01*
X0141000Y0084896D02*
X0131975Y0084896D01*
X0132000Y0086094D02*
X0141000Y0086094D01*
X0141000Y0087293D02*
X0131897Y0087293D01*
X0131400Y0088491D02*
X0141000Y0088491D01*
X0141000Y0089690D02*
X0131889Y0089690D01*
X0132000Y0090888D02*
X0141000Y0090888D01*
X0141000Y0092087D02*
X0131982Y0092087D01*
X0131485Y0093285D02*
X0141000Y0093285D01*
X0141000Y0094484D02*
X0131804Y0094484D01*
X0132000Y0095682D02*
X0141000Y0095682D01*
X0141000Y0096881D02*
X0132000Y0096881D01*
X0131571Y0098079D02*
X0141000Y0098079D01*
X0141000Y0099278D02*
X0130721Y0099278D01*
X0130587Y0100476D02*
X0141000Y0100476D01*
X0141000Y0101675D02*
X0130557Y0101675D01*
X0130071Y0102873D02*
X0141000Y0102873D01*
X0101000Y0071000D02*
X0101000Y0066000D01*
X0081000Y0066000D02*
X0069600Y0066000D01*
X0069400Y0065720D02*
X0069800Y0065720D01*
X0069800Y0066918D02*
X0069400Y0066918D01*
X0069400Y0068117D02*
X0069800Y0068117D01*
X0069800Y0069315D02*
X0069400Y0069315D01*
X0069400Y0070514D02*
X0069800Y0070514D01*
X0069800Y0064521D02*
X0069400Y0064521D01*
X0069400Y0063323D02*
X0069800Y0063323D01*
X0022389Y0077705D02*
X0020967Y0077705D01*
X0020111Y0076506D02*
X0021994Y0076506D01*
X0016648Y0107668D02*
X0005504Y0107668D01*
X0005500Y0108866D02*
X0016550Y0108866D01*
X0016550Y0110065D02*
X0005500Y0110065D01*
X0005500Y0111263D02*
X0016550Y0111263D01*
X0016550Y0112462D02*
X0005500Y0112462D01*
X0005500Y0113660D02*
X0016550Y0113660D01*
X0016550Y0114859D02*
X0005500Y0114859D01*
X0005500Y0116057D02*
X0016550Y0116057D01*
X0016550Y0117256D02*
X0005500Y0117256D01*
X0005500Y0118454D02*
X0016550Y0118454D01*
X0016550Y0119653D02*
X0005500Y0119653D01*
X0005500Y0120851D02*
X0016862Y0120851D01*
D22*
X0034000Y0036000D03*
X0061000Y0016000D03*
D23*
X0063000Y0019000D02*
X0063000Y0034299D01*
X0086000Y0040469D02*
X0086039Y0040469D01*
X0086039Y0052500D01*
X0091075Y0052500D02*
X0091075Y0047862D01*
X0096575Y0047862D02*
X0096575Y0052500D01*
X0101575Y0052500D02*
X0101575Y0047862D01*
X0088008Y0036433D02*
X0088008Y0032496D01*
X0088008Y0019000D01*
X0088555Y0019000D01*
X0086000Y0106000D02*
X0086000Y0111000D01*
X0069600Y0111000D01*
D24*
X0027654Y0081276D02*
X0027500Y0081276D01*
X0027500Y0086500D01*
X0025685Y0081276D02*
X0016000Y0081276D01*
X0016000Y0081000D01*
X0025409Y0075606D02*
X0025409Y0060449D01*
X0044146Y0060449D01*
X0044146Y0060252D01*
X0032500Y0065500D02*
X0032500Y0065567D01*
X0027772Y0065567D01*
X0027772Y0075606D01*
X0027654Y0075606D02*
X0027500Y0075606D01*
X0025685Y0075606D02*
X0025409Y0075606D01*
X0029622Y0075606D02*
X0044307Y0075606D01*
X0044307Y0075803D01*
X0044146Y0075803D01*
X0044146Y0070252D01*
X0070000Y0052500D02*
X0070000Y0040500D01*
X0073382Y0040469D01*
X0073382Y0036531D02*
X0073382Y0034563D01*
X0083618Y0034563D02*
X0088008Y0034563D01*
X0088008Y0032496D01*
X0088008Y0036433D02*
X0088008Y0036531D01*
X0083618Y0036531D01*
X0083618Y0038500D02*
X0086000Y0038500D01*
X0086000Y0040469D01*
X0111000Y0076000D02*
X0122400Y0076000D01*
X0111000Y0076000D02*
X0111000Y0086000D01*
D25*
X0069600Y0111000D02*
X0069600Y0116000D01*
X0055724Y0116000D01*
X0055724Y0123441D01*
X0035646Y0123441D01*
X0035646Y0123047D01*
X0036000Y0123047D01*
X0036000Y0114000D01*
X0030921Y0114000D02*
X0030921Y0123835D01*
X0012024Y0123835D01*
X0012024Y0106118D01*
X0030500Y0114000D02*
X0030921Y0114000D01*
X0044146Y0070252D02*
X0051015Y0070434D01*
X0053500Y0070500D01*
X0053500Y0052500D01*
X0061000Y0019000D02*
X0063000Y0019000D01*
X0070445Y0019000D01*
X0061000Y0019000D02*
X0061000Y0016000D01*
X0108500Y0045000D02*
X0111000Y0045000D01*
X0117500Y0052500D02*
X0117500Y0035700D01*
X0117600Y0035700D01*
X0136000Y0046000D02*
X0136000Y0011000D01*
D26*
X0136000Y0011000D03*
X0136000Y0046000D03*
X0111000Y0046000D03*
X0101000Y0066000D03*
X0081000Y0066000D03*
X0059000Y0058000D03*
X0032500Y0065500D03*
X0039150Y0081256D03*
X0016000Y0081000D03*
X0081000Y0011000D03*
X0111000Y0086000D03*
D27*
X0117500Y0052500D02*
X0101575Y0052500D01*
X0096575Y0052500D01*
X0091075Y0052500D01*
X0086039Y0052500D01*
X0070000Y0052500D01*
X0053500Y0052500D01*
D28*
X0027772Y0075606D02*
X0027500Y0075606D01*
M02*
