G75*
%MOIN*%
%OFA0B0*%
%FSLAX25Y25*%
%IPPOS*%
%LPD*%
%AMOC8*
5,1,8,0,0,1.08239X$1,22.5*
%
%ADD10R,0.03950X0.02375*%
%ADD11R,0.05131X0.06706*%
%ADD12R,0.02375X0.01745*%
%ADD13R,0.07099X0.09265*%
%ADD14R,0.05600X0.09600*%
%ADD15R,0.14973X0.09461*%
%ADD16R,0.03700X0.11800*%
%ADD17C,0.03600*%
%ADD18R,0.04737X0.02769*%
%ADD19R,0.13595X0.03753*%
%ADD20R,0.06706X0.03753*%
%ADD21C,0.03359*%
%ADD22R,0.08674X0.06706*%
%ADD23C,0.08200*%
D10*
X0061425Y0041055D03*
X0061425Y0045780D03*
X0095012Y0045957D03*
X0095012Y0050681D03*
X0101299Y0050681D03*
X0101299Y0045957D03*
X0108661Y0045957D03*
X0108661Y0050681D03*
X0143717Y0060512D03*
X0143717Y0065236D03*
D11*
X0085406Y0021031D03*
X0067295Y0021031D03*
D12*
X0072988Y0036201D03*
X0072988Y0038169D03*
X0072988Y0040138D03*
X0072988Y0042106D03*
X0072988Y0044075D03*
X0083224Y0044075D03*
X0083224Y0042106D03*
X0083224Y0040138D03*
X0083224Y0038169D03*
X0083224Y0036201D03*
D13*
X0078106Y0040138D03*
D14*
X0044332Y0091166D03*
X0035232Y0091166D03*
X0026132Y0091166D03*
D15*
X0035232Y0115567D03*
D16*
X0123382Y0034535D03*
X0128382Y0034535D03*
X0133382Y0034535D03*
X0138382Y0034535D03*
X0143382Y0034535D03*
X0143382Y0018535D03*
X0138382Y0018535D03*
X0133382Y0018535D03*
X0128382Y0018535D03*
X0123382Y0018535D03*
D17*
X0119956Y0067050D02*
X0130356Y0067050D01*
X0130356Y0066650D01*
X0119956Y0066650D01*
X0119956Y0067050D01*
X0119956Y0072050D02*
X0130356Y0072050D01*
X0130356Y0071650D01*
X0119956Y0071650D01*
X0119956Y0072050D01*
X0119956Y0077050D02*
X0130356Y0077050D01*
X0130356Y0076650D01*
X0119956Y0076650D01*
X0119956Y0077050D01*
X0119956Y0082050D02*
X0130356Y0082050D01*
X0130356Y0081650D01*
X0119956Y0081650D01*
X0119956Y0082050D01*
X0119956Y0087050D02*
X0130356Y0087050D01*
X0130356Y0086650D01*
X0119956Y0086650D01*
X0119956Y0087050D01*
X0119956Y0092050D02*
X0130356Y0092050D01*
X0130356Y0091650D01*
X0119956Y0091650D01*
X0119956Y0092050D01*
X0119956Y0097050D02*
X0130356Y0097050D01*
X0130356Y0096650D01*
X0119956Y0096650D01*
X0119956Y0097050D01*
X0119956Y0102050D02*
X0130356Y0102050D01*
X0130356Y0101650D01*
X0119956Y0101650D01*
X0119956Y0102050D01*
X0077556Y0102050D02*
X0067156Y0102050D01*
X0077556Y0102050D02*
X0077556Y0101650D01*
X0067156Y0101650D01*
X0067156Y0102050D01*
X0067156Y0107050D02*
X0077556Y0107050D01*
X0077556Y0106650D01*
X0067156Y0106650D01*
X0067156Y0107050D01*
X0067156Y0112050D02*
X0077556Y0112050D01*
X0077556Y0111650D01*
X0067156Y0111650D01*
X0067156Y0112050D01*
X0067156Y0117050D02*
X0077556Y0117050D01*
X0077556Y0116650D01*
X0067156Y0116650D01*
X0067156Y0117050D01*
X0067156Y0097050D02*
X0077556Y0097050D01*
X0077556Y0096650D01*
X0067156Y0096650D01*
X0067156Y0097050D01*
X0067156Y0092050D02*
X0077556Y0092050D01*
X0077556Y0091650D01*
X0067156Y0091650D01*
X0067156Y0092050D01*
X0067156Y0087050D02*
X0077556Y0087050D01*
X0077556Y0086650D01*
X0067156Y0086650D01*
X0067156Y0087050D01*
X0067156Y0082050D02*
X0077556Y0082050D01*
X0077556Y0081650D01*
X0067156Y0081650D01*
X0067156Y0082050D01*
X0067156Y0077050D02*
X0077556Y0077050D01*
X0077556Y0076650D01*
X0067156Y0076650D01*
X0067156Y0077050D01*
X0067156Y0072050D02*
X0077556Y0072050D01*
X0077556Y0071650D01*
X0067156Y0071650D01*
X0067156Y0072050D01*
X0067156Y0067050D02*
X0077556Y0067050D01*
X0077556Y0066650D01*
X0067156Y0066650D01*
X0067156Y0067050D01*
D18*
X0040449Y0069094D03*
X0040449Y0073031D03*
X0040449Y0076969D03*
X0029622Y0076969D03*
X0029622Y0073031D03*
X0029622Y0069094D03*
D19*
X0009169Y0068976D03*
X0009169Y0059134D03*
X0009169Y0049291D03*
D20*
X0099228Y0013858D03*
X0099228Y0005984D03*
X0113008Y0005984D03*
X0113008Y0013858D03*
D21*
X0106118Y0013563D03*
X0106118Y0006476D03*
D22*
X0146276Y0077047D03*
X0146276Y0092008D03*
X0146276Y0106181D03*
D23*
X0033283Y0016811D03*
X0033283Y0036890D03*
M02*
