%
M48
M72
T01C0.0236
T02C0.0256
T03C0.0400
%
T01
X769Y815
X1478Y776
X769Y1602
X769Y2350
X769Y3177
X2462Y4909
X2344Y7311
X1163Y9083
X809Y10736
X809Y11366
X809Y11957
X5336Y12035
X5336Y11406
X5376Y10185
X4943Y7705
X6793Y5657
X7482Y4909
X8072Y4909
X6793Y4201
X5966Y3256
X5966Y2665
X5966Y2067
X5966Y1496
X7777Y2154
X7777Y2646
X7777Y3138
X9824Y3965
X11124Y3236
X10320Y2563
X12187Y4752
X12974Y4752
X13781Y5402
X10313Y8685
X11137Y9185
X10313Y9783
X11204Y10539
X8842Y10539
X9202Y7705
X8486Y7193
X8486Y6602
X9236Y6602
T02
X10612Y1356
X10612Y648
T03
X3328Y1681
X3328Y3689
M30
