G75*
%MOIN*%
%OFA0B0*%
%FSLAX25Y25*%
%IPPOS*%
%LPD*%
%AMOC8*
5,1,8,0,0,1.08239X$1,22.5*
%
%ADD10R,0.08000X0.06496*%
%ADD11C,0.07400*%
%ADD12C,0.04000*%
%ADD13C,0.01000*%
%ADD14C,0.02400*%
%ADD15C,0.03200*%
%ADD16R,0.04362X0.04362*%
%ADD17C,0.01200*%
D10*
X0016354Y0016252D03*
X0016354Y0026252D03*
X0016354Y0036252D03*
X0050016Y0036252D03*
X0050016Y0026252D03*
X0050016Y0016252D03*
D11*
X0034000Y0016000D03*
X0034000Y0026000D03*
D12*
X0034000Y0036000D03*
X0061000Y0016000D03*
D13*
X0050016Y0036000D02*
X0050016Y0036252D01*
X0016000Y0081000D02*
X0016000Y0086000D01*
X0111000Y0086000D01*
D14*
X0111000Y0046000D02*
X0136000Y0046000D01*
X0136000Y0011000D02*
X0079740Y0011000D01*
X0079740Y0008874D01*
X0061000Y0016000D02*
X0050016Y0016252D01*
X0034000Y0016000D01*
X0034000Y0026000D02*
X0034000Y0036000D01*
D15*
X0050016Y0036000D01*
D16*
X0059000Y0058000D03*
X0081000Y0066000D03*
X0101000Y0066000D03*
X0111000Y0046000D03*
X0136000Y0046000D03*
X0136000Y0011000D03*
X0081000Y0011000D03*
X0032500Y0065500D03*
X0039150Y0081256D03*
X0016000Y0081000D03*
X0111000Y0086000D03*
D17*
X0101000Y0066000D02*
X0081000Y0066000D01*
X0058878Y0065661D02*
X0059000Y0058000D01*
X0058878Y0065661D02*
X0032500Y0065500D01*
X0038799Y0065508D01*
X0039150Y0081256D01*
M02*
