G75*
%MOIN*%
%OFA0B0*%
%FSLAX25Y25*%
%IPPOS*%
%LPD*%
%AMOC8*
5,1,8,0,0,1.08239X$1,22.5*
%
%ADD10C,0.00000*%
D10*
X0001000Y0001850D02*
X0001000Y0126811D01*
X0152000Y0126811D01*
X0152000Y0001850D01*
X0001000Y0001850D01*
X0104838Y0006476D02*
X0104840Y0006547D01*
X0104846Y0006618D01*
X0104856Y0006689D01*
X0104870Y0006758D01*
X0104887Y0006827D01*
X0104909Y0006895D01*
X0104934Y0006962D01*
X0104963Y0007027D01*
X0104995Y0007090D01*
X0105031Y0007152D01*
X0105070Y0007211D01*
X0105113Y0007268D01*
X0105158Y0007323D01*
X0105207Y0007375D01*
X0105258Y0007424D01*
X0105312Y0007470D01*
X0105369Y0007514D01*
X0105427Y0007554D01*
X0105488Y0007590D01*
X0105551Y0007624D01*
X0105616Y0007653D01*
X0105682Y0007679D01*
X0105750Y0007702D01*
X0105818Y0007720D01*
X0105888Y0007735D01*
X0105958Y0007746D01*
X0106029Y0007753D01*
X0106100Y0007756D01*
X0106171Y0007755D01*
X0106242Y0007750D01*
X0106313Y0007741D01*
X0106383Y0007728D01*
X0106452Y0007712D01*
X0106520Y0007691D01*
X0106587Y0007667D01*
X0106653Y0007639D01*
X0106716Y0007607D01*
X0106778Y0007572D01*
X0106838Y0007534D01*
X0106896Y0007492D01*
X0106951Y0007448D01*
X0107004Y0007400D01*
X0107054Y0007349D01*
X0107101Y0007296D01*
X0107145Y0007240D01*
X0107186Y0007182D01*
X0107224Y0007121D01*
X0107258Y0007059D01*
X0107288Y0006994D01*
X0107315Y0006929D01*
X0107339Y0006861D01*
X0107358Y0006793D01*
X0107374Y0006724D01*
X0107386Y0006653D01*
X0107394Y0006583D01*
X0107398Y0006512D01*
X0107398Y0006440D01*
X0107394Y0006369D01*
X0107386Y0006299D01*
X0107374Y0006228D01*
X0107358Y0006159D01*
X0107339Y0006091D01*
X0107315Y0006023D01*
X0107288Y0005958D01*
X0107258Y0005893D01*
X0107224Y0005831D01*
X0107186Y0005770D01*
X0107145Y0005712D01*
X0107101Y0005656D01*
X0107054Y0005603D01*
X0107004Y0005552D01*
X0106951Y0005504D01*
X0106896Y0005460D01*
X0106838Y0005418D01*
X0106778Y0005380D01*
X0106716Y0005345D01*
X0106653Y0005313D01*
X0106587Y0005285D01*
X0106520Y0005261D01*
X0106452Y0005240D01*
X0106383Y0005224D01*
X0106313Y0005211D01*
X0106242Y0005202D01*
X0106171Y0005197D01*
X0106100Y0005196D01*
X0106029Y0005199D01*
X0105958Y0005206D01*
X0105888Y0005217D01*
X0105818Y0005232D01*
X0105750Y0005250D01*
X0105682Y0005273D01*
X0105616Y0005299D01*
X0105551Y0005328D01*
X0105488Y0005362D01*
X0105427Y0005398D01*
X0105369Y0005438D01*
X0105312Y0005482D01*
X0105258Y0005528D01*
X0105207Y0005577D01*
X0105158Y0005629D01*
X0105113Y0005684D01*
X0105070Y0005741D01*
X0105031Y0005800D01*
X0104995Y0005862D01*
X0104963Y0005925D01*
X0104934Y0005990D01*
X0104909Y0006057D01*
X0104887Y0006125D01*
X0104870Y0006194D01*
X0104856Y0006263D01*
X0104846Y0006334D01*
X0104840Y0006405D01*
X0104838Y0006476D01*
X0104838Y0013563D02*
X0104840Y0013634D01*
X0104846Y0013705D01*
X0104856Y0013776D01*
X0104870Y0013845D01*
X0104887Y0013914D01*
X0104909Y0013982D01*
X0104934Y0014049D01*
X0104963Y0014114D01*
X0104995Y0014177D01*
X0105031Y0014239D01*
X0105070Y0014298D01*
X0105113Y0014355D01*
X0105158Y0014410D01*
X0105207Y0014462D01*
X0105258Y0014511D01*
X0105312Y0014557D01*
X0105369Y0014601D01*
X0105427Y0014641D01*
X0105488Y0014677D01*
X0105551Y0014711D01*
X0105616Y0014740D01*
X0105682Y0014766D01*
X0105750Y0014789D01*
X0105818Y0014807D01*
X0105888Y0014822D01*
X0105958Y0014833D01*
X0106029Y0014840D01*
X0106100Y0014843D01*
X0106171Y0014842D01*
X0106242Y0014837D01*
X0106313Y0014828D01*
X0106383Y0014815D01*
X0106452Y0014799D01*
X0106520Y0014778D01*
X0106587Y0014754D01*
X0106653Y0014726D01*
X0106716Y0014694D01*
X0106778Y0014659D01*
X0106838Y0014621D01*
X0106896Y0014579D01*
X0106951Y0014535D01*
X0107004Y0014487D01*
X0107054Y0014436D01*
X0107101Y0014383D01*
X0107145Y0014327D01*
X0107186Y0014269D01*
X0107224Y0014208D01*
X0107258Y0014146D01*
X0107288Y0014081D01*
X0107315Y0014016D01*
X0107339Y0013948D01*
X0107358Y0013880D01*
X0107374Y0013811D01*
X0107386Y0013740D01*
X0107394Y0013670D01*
X0107398Y0013599D01*
X0107398Y0013527D01*
X0107394Y0013456D01*
X0107386Y0013386D01*
X0107374Y0013315D01*
X0107358Y0013246D01*
X0107339Y0013178D01*
X0107315Y0013110D01*
X0107288Y0013045D01*
X0107258Y0012980D01*
X0107224Y0012918D01*
X0107186Y0012857D01*
X0107145Y0012799D01*
X0107101Y0012743D01*
X0107054Y0012690D01*
X0107004Y0012639D01*
X0106951Y0012591D01*
X0106896Y0012547D01*
X0106838Y0012505D01*
X0106778Y0012467D01*
X0106716Y0012432D01*
X0106653Y0012400D01*
X0106587Y0012372D01*
X0106520Y0012348D01*
X0106452Y0012327D01*
X0106383Y0012311D01*
X0106313Y0012298D01*
X0106242Y0012289D01*
X0106171Y0012284D01*
X0106100Y0012283D01*
X0106029Y0012286D01*
X0105958Y0012293D01*
X0105888Y0012304D01*
X0105818Y0012319D01*
X0105750Y0012337D01*
X0105682Y0012360D01*
X0105616Y0012386D01*
X0105551Y0012415D01*
X0105488Y0012449D01*
X0105427Y0012485D01*
X0105369Y0012525D01*
X0105312Y0012569D01*
X0105258Y0012615D01*
X0105207Y0012664D01*
X0105158Y0012716D01*
X0105113Y0012771D01*
X0105070Y0012828D01*
X0105031Y0012887D01*
X0104995Y0012949D01*
X0104963Y0013012D01*
X0104934Y0013077D01*
X0104909Y0013144D01*
X0104887Y0013212D01*
X0104870Y0013281D01*
X0104856Y0013350D01*
X0104846Y0013421D01*
X0104840Y0013492D01*
X0104838Y0013563D01*
M02*
