G75*
%MOIN*%
%OFA0B0*%
%FSLAX25Y25*%
%IPPOS*%
%LPD*%
%AMOC8*
5,1,8,0,0,1.08239X$1,22.5*
%
%ADD10R,0.03150X0.01575*%
%ADD11R,0.04331X0.05906*%
%ADD12R,0.01575X0.00945*%
%ADD13R,0.06299X0.08465*%
%ADD14R,0.04800X0.08800*%
%ADD15R,0.14173X0.08661*%
%ADD16R,0.02900X0.11000*%
%ADD17C,0.02880*%
%ADD18R,0.03937X0.01969*%
%ADD19R,0.12795X0.02953*%
%ADD20R,0.05906X0.02953*%
%ADD21R,0.07874X0.05906*%
%ADD22C,0.07400*%
%ADD23C,0.01200*%
%ADD24C,0.02400*%
%ADD25C,0.04362*%
%ADD26C,0.01600*%
%ADD27C,0.01000*%
D10*
X0061425Y0041055D03*
X0061425Y0045780D03*
X0095012Y0045957D03*
X0095012Y0050681D03*
X0101299Y0050681D03*
X0101299Y0045957D03*
X0108661Y0045957D03*
X0108661Y0050681D03*
X0143717Y0060512D03*
X0143717Y0065236D03*
D11*
X0085406Y0021031D03*
X0067295Y0021031D03*
D12*
X0072988Y0036201D03*
X0072988Y0038169D03*
X0072988Y0040138D03*
X0072988Y0042106D03*
X0072988Y0044075D03*
X0083224Y0044075D03*
X0083224Y0042106D03*
X0083224Y0040138D03*
X0083224Y0038169D03*
X0083224Y0036201D03*
D13*
X0078106Y0040138D03*
D14*
X0044332Y0091166D03*
X0035232Y0091166D03*
X0026132Y0091166D03*
D15*
X0035232Y0115567D03*
D16*
X0123382Y0034535D03*
X0128382Y0034535D03*
X0133382Y0034535D03*
X0138382Y0034535D03*
X0143382Y0034535D03*
X0143382Y0018535D03*
X0138382Y0018535D03*
X0133382Y0018535D03*
X0128382Y0018535D03*
X0123382Y0018535D03*
D17*
X0119996Y0067010D02*
X0130316Y0067010D01*
X0130316Y0066690D01*
X0119996Y0066690D01*
X0119996Y0067010D01*
X0119996Y0072010D02*
X0130316Y0072010D01*
X0130316Y0071690D01*
X0119996Y0071690D01*
X0119996Y0072010D01*
X0119996Y0077010D02*
X0130316Y0077010D01*
X0130316Y0076690D01*
X0119996Y0076690D01*
X0119996Y0077010D01*
X0119996Y0082010D02*
X0130316Y0082010D01*
X0130316Y0081690D01*
X0119996Y0081690D01*
X0119996Y0082010D01*
X0119996Y0087010D02*
X0130316Y0087010D01*
X0130316Y0086690D01*
X0119996Y0086690D01*
X0119996Y0087010D01*
X0119996Y0092010D02*
X0130316Y0092010D01*
X0130316Y0091690D01*
X0119996Y0091690D01*
X0119996Y0092010D01*
X0119996Y0097010D02*
X0130316Y0097010D01*
X0130316Y0096690D01*
X0119996Y0096690D01*
X0119996Y0097010D01*
X0119996Y0102010D02*
X0130316Y0102010D01*
X0130316Y0101690D01*
X0119996Y0101690D01*
X0119996Y0102010D01*
X0077516Y0102010D02*
X0067196Y0102010D01*
X0077516Y0102010D02*
X0077516Y0101690D01*
X0067196Y0101690D01*
X0067196Y0102010D01*
X0067196Y0107010D02*
X0077516Y0107010D01*
X0077516Y0106690D01*
X0067196Y0106690D01*
X0067196Y0107010D01*
X0067196Y0112010D02*
X0077516Y0112010D01*
X0077516Y0111690D01*
X0067196Y0111690D01*
X0067196Y0112010D01*
X0067196Y0117010D02*
X0077516Y0117010D01*
X0077516Y0116690D01*
X0067196Y0116690D01*
X0067196Y0117010D01*
X0067196Y0097010D02*
X0077516Y0097010D01*
X0077516Y0096690D01*
X0067196Y0096690D01*
X0067196Y0097010D01*
X0067196Y0092010D02*
X0077516Y0092010D01*
X0077516Y0091690D01*
X0067196Y0091690D01*
X0067196Y0092010D01*
X0067196Y0087010D02*
X0077516Y0087010D01*
X0077516Y0086690D01*
X0067196Y0086690D01*
X0067196Y0087010D01*
X0067196Y0082010D02*
X0077516Y0082010D01*
X0077516Y0081690D01*
X0067196Y0081690D01*
X0067196Y0082010D01*
X0067196Y0077010D02*
X0077516Y0077010D01*
X0077516Y0076690D01*
X0067196Y0076690D01*
X0067196Y0077010D01*
X0067196Y0072010D02*
X0077516Y0072010D01*
X0077516Y0071690D01*
X0067196Y0071690D01*
X0067196Y0072010D01*
X0067196Y0067010D02*
X0077516Y0067010D01*
X0077516Y0066690D01*
X0067196Y0066690D01*
X0067196Y0067010D01*
D18*
X0040449Y0069094D03*
X0040449Y0073031D03*
X0040449Y0076969D03*
X0029622Y0076969D03*
X0029622Y0073031D03*
X0029622Y0069094D03*
D19*
X0009169Y0068976D03*
X0009169Y0059134D03*
X0009169Y0049291D03*
D20*
X0099228Y0013858D03*
X0099228Y0005984D03*
X0113008Y0005984D03*
X0113008Y0013858D03*
D21*
X0146276Y0077047D03*
X0146276Y0092008D03*
X0146276Y0106181D03*
D22*
X0033283Y0036890D03*
X0033283Y0016811D03*
D23*
X0004000Y0004850D02*
X0004000Y0041690D01*
X0005028Y0041264D01*
X0006421Y0041264D01*
X0007707Y0041797D01*
X0007962Y0042051D01*
X0029649Y0042051D01*
X0030935Y0042584D01*
X0031920Y0043569D01*
X0032453Y0044855D01*
X0032453Y0051106D01*
X0082584Y0051106D01*
X0082654Y0050842D01*
X0082663Y0050552D01*
X0082833Y0050176D01*
X0082933Y0049802D01*
X0082933Y0047547D01*
X0081840Y0047547D01*
X0080738Y0047091D01*
X0079894Y0046247D01*
X0079779Y0045970D01*
X0078706Y0045970D01*
X0078706Y0040738D01*
X0077506Y0040738D01*
X0077506Y0045970D01*
X0076433Y0045970D01*
X0076319Y0046247D01*
X0075475Y0047091D01*
X0074372Y0047547D01*
X0071604Y0047547D01*
X0070501Y0047091D01*
X0070119Y0046709D01*
X0068960Y0047189D01*
X0066899Y0047189D01*
X0064994Y0046400D01*
X0064600Y0046006D01*
X0064600Y0046778D01*
X0064491Y0047184D01*
X0064280Y0047549D01*
X0063982Y0047847D01*
X0063618Y0048058D01*
X0063211Y0048167D01*
X0061425Y0048167D01*
X0059640Y0048167D01*
X0059233Y0048058D01*
X0058868Y0047847D01*
X0058570Y0047549D01*
X0058359Y0047184D01*
X0058250Y0046778D01*
X0058250Y0045780D01*
X0061425Y0045780D01*
X0061425Y0048167D01*
X0061425Y0045780D01*
X0061425Y0045780D01*
X0061425Y0045779D01*
X0058250Y0045779D01*
X0058250Y0044781D01*
X0058267Y0044720D01*
X0056553Y0044720D01*
X0055898Y0044736D01*
X0055858Y0044720D01*
X0055816Y0044720D01*
X0055210Y0044470D01*
X0054599Y0044233D01*
X0054568Y0044204D01*
X0054529Y0044188D01*
X0054066Y0043724D01*
X0053592Y0043272D01*
X0053575Y0043233D01*
X0053545Y0043203D01*
X0053294Y0042598D01*
X0053029Y0041998D01*
X0053028Y0041956D01*
X0053012Y0041917D01*
X0053012Y0041261D01*
X0052634Y0025121D01*
X0048376Y0024819D01*
X0026524Y0024819D01*
X0025238Y0024286D01*
X0024253Y0023301D01*
X0023720Y0022015D01*
X0023720Y0009934D01*
X0024253Y0008647D01*
X0025238Y0007663D01*
X0026524Y0007130D01*
X0069413Y0007130D01*
X0070699Y0007663D01*
X0071684Y0008647D01*
X0072217Y0009934D01*
X0072217Y0016893D01*
X0072461Y0017482D01*
X0072461Y0024581D01*
X0072217Y0025170D01*
X0072217Y0029846D01*
X0074137Y0029846D01*
X0075424Y0030379D01*
X0076408Y0031364D01*
X0076941Y0032650D01*
X0076941Y0034306D01*
X0077506Y0034305D01*
X0077506Y0039538D01*
X0078706Y0039538D01*
X0078706Y0034306D01*
X0079779Y0034306D01*
X0079783Y0034295D01*
X0079783Y0017296D01*
X0080316Y0016010D01*
X0081301Y0015025D01*
X0082587Y0014492D01*
X0093276Y0014492D01*
X0093276Y0011785D01*
X0093732Y0010683D01*
X0094576Y0009839D01*
X0095679Y0009382D01*
X0102778Y0009382D01*
X0103108Y0009519D01*
X0102596Y0009006D01*
X0102392Y0009061D01*
X0099367Y0009061D01*
X0099367Y0006123D01*
X0099090Y0006123D01*
X0099090Y0009061D01*
X0096065Y0009061D01*
X0095658Y0008952D01*
X0095293Y0008741D01*
X0094995Y0008443D01*
X0094785Y0008078D01*
X0094676Y0007671D01*
X0094676Y0006122D01*
X0099090Y0006122D01*
X0099090Y0005846D01*
X0094676Y0005846D01*
X0094676Y0004850D01*
X0004000Y0004850D01*
X0004000Y0005446D02*
X0094676Y0005446D01*
X0094676Y0006644D02*
X0004000Y0006644D01*
X0004000Y0007843D02*
X0025058Y0007843D01*
X0024090Y0009041D02*
X0004000Y0009041D01*
X0004000Y0010240D02*
X0023720Y0010240D01*
X0023720Y0011438D02*
X0004000Y0011438D01*
X0004000Y0012637D02*
X0023720Y0012637D01*
X0023720Y0013836D02*
X0004000Y0013836D01*
X0004000Y0015034D02*
X0023720Y0015034D01*
X0023720Y0016233D02*
X0004000Y0016233D01*
X0004000Y0017431D02*
X0023720Y0017431D01*
X0023720Y0018630D02*
X0004000Y0018630D01*
X0004000Y0019828D02*
X0023720Y0019828D01*
X0023720Y0021027D02*
X0004000Y0021027D01*
X0004000Y0022225D02*
X0023807Y0022225D01*
X0024375Y0023424D02*
X0004000Y0023424D01*
X0004000Y0024622D02*
X0026049Y0024622D01*
X0030506Y0032357D02*
X0031249Y0031978D01*
X0032042Y0031720D01*
X0032866Y0031590D01*
X0032883Y0031590D01*
X0032883Y0036490D01*
X0027983Y0036490D01*
X0027983Y0036473D01*
X0028114Y0035649D01*
X0028372Y0034855D01*
X0028750Y0034112D01*
X0029241Y0033437D01*
X0029831Y0032847D01*
X0030506Y0032357D01*
X0029666Y0033012D02*
X0004000Y0033012D01*
X0004000Y0034210D02*
X0028700Y0034210D01*
X0028192Y0035409D02*
X0004000Y0035409D01*
X0004000Y0036607D02*
X0032883Y0036607D01*
X0032883Y0036490D02*
X0032883Y0037290D01*
X0027983Y0037290D01*
X0027983Y0037307D01*
X0028114Y0038131D01*
X0028372Y0038924D01*
X0028750Y0039668D01*
X0029241Y0040342D01*
X0029831Y0040932D01*
X0030506Y0041423D01*
X0031249Y0041801D01*
X0032042Y0042059D01*
X0032866Y0042190D01*
X0032883Y0042190D01*
X0032883Y0037290D01*
X0033683Y0037290D01*
X0033683Y0042190D01*
X0033701Y0042190D01*
X0034525Y0042059D01*
X0035318Y0041801D01*
X0036061Y0041423D01*
X0036736Y0040932D01*
X0037326Y0040342D01*
X0037816Y0039668D01*
X0038195Y0038924D01*
X0038453Y0038131D01*
X0038583Y0037307D01*
X0038583Y0037290D01*
X0033684Y0037290D01*
X0033684Y0036490D01*
X0038583Y0036490D01*
X0038583Y0036473D01*
X0038453Y0035649D01*
X0038195Y0034855D01*
X0037816Y0034112D01*
X0037326Y0033437D01*
X0036736Y0032847D01*
X0036061Y0032357D01*
X0035318Y0031978D01*
X0034525Y0031720D01*
X0033701Y0031590D01*
X0033683Y0031590D01*
X0033683Y0036490D01*
X0032883Y0036490D01*
X0033684Y0036607D02*
X0052903Y0036607D01*
X0052875Y0035409D02*
X0038375Y0035409D01*
X0037866Y0034210D02*
X0052847Y0034210D01*
X0052819Y0033012D02*
X0036901Y0033012D01*
X0034810Y0031813D02*
X0052791Y0031813D01*
X0052763Y0030615D02*
X0004000Y0030615D01*
X0004000Y0031813D02*
X0031756Y0031813D01*
X0032883Y0031813D02*
X0033683Y0031813D01*
X0033683Y0033012D02*
X0032883Y0033012D01*
X0032883Y0034210D02*
X0033683Y0034210D01*
X0033683Y0035409D02*
X0032883Y0035409D01*
X0032883Y0037806D02*
X0033683Y0037806D01*
X0033683Y0039004D02*
X0032883Y0039004D01*
X0032883Y0040203D02*
X0033683Y0040203D01*
X0033683Y0041401D02*
X0032883Y0041401D01*
X0030951Y0042600D02*
X0053295Y0042600D01*
X0053012Y0041401D02*
X0036091Y0041401D01*
X0037428Y0040203D02*
X0052987Y0040203D01*
X0052959Y0039004D02*
X0038154Y0039004D01*
X0038504Y0037806D02*
X0052931Y0037806D01*
X0054140Y0043798D02*
X0032015Y0043798D01*
X0032453Y0044997D02*
X0058250Y0044997D01*
X0058250Y0046195D02*
X0032453Y0046195D01*
X0032453Y0047394D02*
X0058480Y0047394D01*
X0061425Y0047394D02*
X0061425Y0047394D01*
X0061425Y0046195D02*
X0061425Y0046195D01*
X0064370Y0047394D02*
X0071234Y0047394D01*
X0074743Y0047394D02*
X0081470Y0047394D01*
X0082933Y0048592D02*
X0032453Y0048592D01*
X0032453Y0049791D02*
X0082933Y0049791D01*
X0082615Y0050989D02*
X0032453Y0050989D01*
X0030476Y0041401D02*
X0006753Y0041401D01*
X0004696Y0041401D02*
X0004000Y0041401D01*
X0004000Y0040203D02*
X0029139Y0040203D01*
X0028413Y0039004D02*
X0004000Y0039004D01*
X0004000Y0037806D02*
X0028062Y0037806D01*
X0004000Y0029416D02*
X0052735Y0029416D01*
X0052707Y0028218D02*
X0004000Y0028218D01*
X0004000Y0027019D02*
X0052679Y0027019D01*
X0052650Y0025821D02*
X0004000Y0025821D01*
X0033146Y0062437D02*
X0033146Y0065508D01*
X0033290Y0065567D01*
X0034134Y0066411D01*
X0034591Y0067513D01*
X0034591Y0070675D01*
X0034430Y0071063D01*
X0034591Y0071450D01*
X0034591Y0074612D01*
X0034430Y0075000D01*
X0034591Y0075388D01*
X0034591Y0078549D01*
X0034134Y0079652D01*
X0033290Y0080496D01*
X0032187Y0080953D01*
X0027057Y0080953D01*
X0026802Y0080847D01*
X0018748Y0080847D01*
X0017351Y0080269D01*
X0016282Y0079200D01*
X0015704Y0077803D01*
X0015704Y0072053D01*
X0009307Y0072053D01*
X0009307Y0069115D01*
X0009031Y0069115D01*
X0009031Y0072053D01*
X0004000Y0072053D01*
X0004000Y0123811D01*
X0086433Y0123811D01*
X0086433Y0108957D01*
X0135520Y0108875D01*
X0134545Y0107900D01*
X0133814Y0106136D01*
X0133814Y0100532D01*
X0133127Y0100532D01*
X0133239Y0100804D01*
X0133356Y0101391D01*
X0133356Y0101650D01*
X0125356Y0101650D01*
X0125356Y0102050D01*
X0133356Y0102050D01*
X0133356Y0102310D01*
X0133239Y0102897D01*
X0133010Y0103450D01*
X0132677Y0103948D01*
X0132254Y0104372D01*
X0131756Y0104704D01*
X0131203Y0104934D01*
X0130615Y0105050D01*
X0125356Y0105050D01*
X0125356Y0102050D01*
X0124956Y0102050D01*
X0124956Y0101650D01*
X0116956Y0101650D01*
X0116956Y0101391D01*
X0117073Y0100804D01*
X0117201Y0100494D01*
X0116232Y0099525D01*
X0115556Y0097894D01*
X0115556Y0095807D01*
X0116159Y0094350D01*
X0116053Y0094093D01*
X0115766Y0094785D01*
X0114309Y0096243D01*
X0112405Y0097031D01*
X0110343Y0097031D01*
X0108439Y0096243D01*
X0107817Y0095620D01*
X0108307Y0096804D01*
X0108307Y0098865D01*
X0107518Y0100770D01*
X0106061Y0102227D01*
X0104157Y0103016D01*
X0102095Y0103016D01*
X0100191Y0102227D01*
X0099174Y0101210D01*
X0080358Y0100608D01*
X0080439Y0100804D01*
X0080556Y0101391D01*
X0080556Y0101650D01*
X0072556Y0101650D01*
X0072556Y0102050D01*
X0080556Y0102050D01*
X0080556Y0102310D01*
X0080439Y0102897D01*
X0080311Y0103206D01*
X0081280Y0104175D01*
X0081956Y0105807D01*
X0081956Y0107894D01*
X0081280Y0109525D01*
X0080311Y0110494D01*
X0080439Y0110804D01*
X0080556Y0111391D01*
X0080556Y0111650D01*
X0072556Y0111650D01*
X0072556Y0112050D01*
X0080556Y0112050D01*
X0080556Y0112310D01*
X0080439Y0112897D01*
X0080210Y0113450D01*
X0079877Y0113948D01*
X0079475Y0114350D01*
X0079877Y0114752D01*
X0080210Y0115250D01*
X0080439Y0115804D01*
X0080556Y0116391D01*
X0080556Y0116650D01*
X0072556Y0116650D01*
X0072556Y0113650D01*
X0072556Y0112050D01*
X0072156Y0112050D01*
X0072156Y0111650D01*
X0064156Y0111650D01*
X0064156Y0111391D01*
X0064273Y0110804D01*
X0064401Y0110494D01*
X0063432Y0109525D01*
X0062756Y0107894D01*
X0062756Y0105807D01*
X0063432Y0104175D01*
X0064401Y0103206D01*
X0064273Y0102897D01*
X0064156Y0102310D01*
X0064156Y0102050D01*
X0072156Y0102050D01*
X0072156Y0101650D01*
X0064156Y0101650D01*
X0064156Y0101391D01*
X0064273Y0100804D01*
X0064336Y0100650D01*
X0058867Y0100650D01*
X0058937Y0100820D01*
X0058937Y0102881D01*
X0058148Y0104785D01*
X0056691Y0106243D01*
X0054786Y0107031D01*
X0052725Y0107031D01*
X0050821Y0106243D01*
X0049364Y0104785D01*
X0048575Y0102881D01*
X0048575Y0100820D01*
X0049364Y0098916D01*
X0049953Y0098326D01*
X0049388Y0097218D01*
X0049402Y0096960D01*
X0049276Y0097266D01*
X0048432Y0098109D01*
X0047329Y0098566D01*
X0041336Y0098566D01*
X0040233Y0098109D01*
X0039389Y0097266D01*
X0039017Y0096368D01*
X0038913Y0096549D01*
X0038615Y0096846D01*
X0038250Y0097057D01*
X0037843Y0097166D01*
X0035832Y0097166D01*
X0035832Y0091766D01*
X0034632Y0091766D01*
X0034632Y0097166D01*
X0032622Y0097166D01*
X0032215Y0097057D01*
X0031850Y0096846D01*
X0031552Y0096549D01*
X0031447Y0096368D01*
X0031076Y0097266D01*
X0030232Y0098109D01*
X0029129Y0098566D01*
X0023136Y0098566D01*
X0022033Y0098109D01*
X0021189Y0097266D01*
X0020732Y0096163D01*
X0020732Y0094966D01*
X0014818Y0094966D01*
X0014565Y0095219D01*
X0012661Y0096008D01*
X0010599Y0096008D01*
X0008695Y0095219D01*
X0007238Y0093762D01*
X0006449Y0091857D01*
X0006449Y0089796D01*
X0007238Y0087892D01*
X0008695Y0086434D01*
X0010599Y0085646D01*
X0012661Y0085646D01*
X0014565Y0086434D01*
X0015496Y0087366D01*
X0020732Y0087366D01*
X0020732Y0086169D01*
X0021189Y0085067D01*
X0022033Y0084223D01*
X0023136Y0083766D01*
X0029129Y0083766D01*
X0030232Y0084223D01*
X0031076Y0085067D01*
X0031447Y0085965D01*
X0031552Y0085784D01*
X0031850Y0085486D01*
X0032215Y0085275D01*
X0032622Y0085166D01*
X0034632Y0085166D01*
X0034632Y0090566D01*
X0035832Y0090566D01*
X0035832Y0085166D01*
X0037843Y0085166D01*
X0038250Y0085275D01*
X0038615Y0085486D01*
X0038913Y0085784D01*
X0039017Y0085965D01*
X0039389Y0085067D01*
X0040233Y0084223D01*
X0041336Y0083766D01*
X0047329Y0083766D01*
X0048432Y0084223D01*
X0049276Y0085067D01*
X0049732Y0086169D01*
X0049732Y0087420D01*
X0054118Y0087420D01*
X0055515Y0087999D01*
X0056584Y0089068D01*
X0057162Y0090465D01*
X0057162Y0093050D01*
X0057830Y0093050D01*
X0057830Y0072894D01*
X0052600Y0072894D01*
X0053818Y0074112D01*
X0054606Y0076017D01*
X0054606Y0078078D01*
X0053818Y0079982D01*
X0052360Y0081440D01*
X0050456Y0082228D01*
X0048395Y0082228D01*
X0046490Y0081440D01*
X0045819Y0080768D01*
X0043459Y0080768D01*
X0043014Y0080953D01*
X0037884Y0080953D01*
X0036781Y0080496D01*
X0035937Y0079652D01*
X0035480Y0078549D01*
X0035480Y0075388D01*
X0035937Y0074285D01*
X0036781Y0073441D01*
X0036880Y0073400D01*
X0036880Y0073032D01*
X0037769Y0073032D01*
X0037770Y0073031D01*
X0037769Y0073031D01*
X0036880Y0073031D01*
X0036880Y0072663D01*
X0036781Y0072622D01*
X0035937Y0071778D01*
X0035480Y0070675D01*
X0035480Y0067513D01*
X0035937Y0066411D01*
X0036781Y0065567D01*
X0037884Y0065110D01*
X0043014Y0065110D01*
X0043459Y0065294D01*
X0061018Y0065294D01*
X0061366Y0065220D01*
X0061766Y0065294D01*
X0062173Y0065294D01*
X0062502Y0065431D01*
X0062853Y0065496D01*
X0063194Y0065717D01*
X0063570Y0065873D01*
X0063822Y0066125D01*
X0064165Y0066348D01*
X0064273Y0065804D01*
X0064502Y0065250D01*
X0064835Y0064752D01*
X0065258Y0064329D01*
X0065756Y0063996D01*
X0066309Y0063767D01*
X0066896Y0063650D01*
X0072156Y0063650D01*
X0072156Y0066650D01*
X0072556Y0066650D01*
X0072556Y0063650D01*
X0077815Y0063650D01*
X0078403Y0063767D01*
X0078956Y0063996D01*
X0079454Y0064329D01*
X0079877Y0064752D01*
X0080210Y0065250D01*
X0080439Y0065804D01*
X0080556Y0066391D01*
X0080556Y0066650D01*
X0072556Y0066650D01*
X0072556Y0067050D01*
X0080556Y0067050D01*
X0080556Y0067310D01*
X0080439Y0067897D01*
X0080210Y0068450D01*
X0079877Y0068948D01*
X0079475Y0069350D01*
X0079877Y0069752D01*
X0080210Y0070250D01*
X0080439Y0070804D01*
X0080556Y0071391D01*
X0080556Y0071650D01*
X0072556Y0071650D01*
X0072556Y0068650D01*
X0072556Y0067050D01*
X0072156Y0067050D01*
X0072156Y0071650D01*
X0072556Y0071650D01*
X0072556Y0072050D01*
X0080556Y0072050D01*
X0080556Y0072310D01*
X0080439Y0072897D01*
X0080311Y0073206D01*
X0081280Y0074175D01*
X0081956Y0075807D01*
X0081956Y0077894D01*
X0081352Y0079350D01*
X0081956Y0080807D01*
X0081956Y0082894D01*
X0081767Y0083350D01*
X0099299Y0083350D01*
X0100191Y0082458D01*
X0102095Y0081669D01*
X0104157Y0081669D01*
X0106061Y0082458D01*
X0107518Y0083916D01*
X0108307Y0085820D01*
X0108307Y0087590D01*
X0108439Y0087458D01*
X0110343Y0086669D01*
X0112405Y0086669D01*
X0114309Y0087458D01*
X0115766Y0088916D01*
X0116053Y0089607D01*
X0116159Y0089350D01*
X0115556Y0087894D01*
X0115556Y0085807D01*
X0116159Y0084350D01*
X0115556Y0082894D01*
X0115556Y0080847D01*
X0095551Y0080847D01*
X0094958Y0081440D01*
X0093054Y0082228D01*
X0090993Y0082228D01*
X0089089Y0081440D01*
X0087631Y0079982D01*
X0086843Y0078078D01*
X0086843Y0076017D01*
X0087631Y0074112D01*
X0089089Y0072655D01*
X0090993Y0071866D01*
X0093054Y0071866D01*
X0094958Y0072655D01*
X0095551Y0073247D01*
X0117160Y0073247D01*
X0117201Y0073206D01*
X0117073Y0072897D01*
X0116956Y0072310D01*
X0116956Y0072050D01*
X0124956Y0072050D01*
X0124956Y0071650D01*
X0125356Y0071650D01*
X0125356Y0070050D01*
X0125356Y0067050D01*
X0133356Y0067050D01*
X0133356Y0067310D01*
X0133239Y0067897D01*
X0133010Y0068450D01*
X0132677Y0068948D01*
X0132275Y0069350D01*
X0132677Y0069752D01*
X0133010Y0070250D01*
X0133239Y0070804D01*
X0133356Y0071391D01*
X0133356Y0071650D01*
X0125356Y0071650D01*
X0125356Y0072050D01*
X0133356Y0072050D01*
X0133356Y0072310D01*
X0133239Y0072897D01*
X0133111Y0073206D01*
X0134080Y0074175D01*
X0134756Y0075807D01*
X0134756Y0077894D01*
X0134567Y0078350D01*
X0135295Y0078350D01*
X0135295Y0068083D01*
X0135828Y0066797D01*
X0136813Y0065812D01*
X0138099Y0065280D01*
X0139142Y0065280D01*
X0139142Y0063852D01*
X0139547Y0062874D01*
X0139142Y0061896D01*
X0139142Y0059128D01*
X0139169Y0059061D01*
X0138842Y0059197D01*
X0136780Y0059197D01*
X0134876Y0058408D01*
X0133419Y0056951D01*
X0132630Y0055046D01*
X0132630Y0052985D01*
X0133419Y0051081D01*
X0134876Y0049623D01*
X0136780Y0048835D01*
X0138842Y0048835D01*
X0140217Y0049404D01*
X0140217Y0042563D01*
X0139389Y0041735D01*
X0139347Y0041635D01*
X0138507Y0041635D01*
X0138507Y0034661D01*
X0138257Y0034661D01*
X0138257Y0041635D01*
X0136721Y0041635D01*
X0136314Y0041526D01*
X0135949Y0041316D01*
X0135882Y0041248D01*
X0135814Y0041316D01*
X0135449Y0041526D01*
X0135043Y0041635D01*
X0133507Y0041635D01*
X0133507Y0034661D01*
X0133257Y0034661D01*
X0133257Y0041635D01*
X0132416Y0041635D01*
X0132375Y0041735D01*
X0131531Y0042579D01*
X0130429Y0043035D01*
X0126335Y0043035D01*
X0125882Y0042848D01*
X0125429Y0043035D01*
X0121335Y0043035D01*
X0120233Y0042579D01*
X0119389Y0041735D01*
X0118932Y0040632D01*
X0118932Y0030941D01*
X0116255Y0030941D01*
X0116417Y0031332D01*
X0116417Y0033393D01*
X0115629Y0035297D01*
X0114171Y0036755D01*
X0112267Y0037543D01*
X0110206Y0037543D01*
X0108301Y0036755D01*
X0106844Y0035297D01*
X0106055Y0033393D01*
X0106055Y0031332D01*
X0106844Y0029427D01*
X0107187Y0029085D01*
X0107076Y0029086D01*
X0106140Y0030022D01*
X0104235Y0030811D01*
X0102174Y0030811D01*
X0100270Y0030022D01*
X0098812Y0028565D01*
X0098024Y0026661D01*
X0098024Y0024599D01*
X0098292Y0023952D01*
X0097246Y0023518D01*
X0097020Y0023292D01*
X0097020Y0033649D01*
X0096487Y0034935D01*
X0095502Y0035920D01*
X0094216Y0036453D01*
X0089694Y0036453D01*
X0089676Y0036539D01*
X0091460Y0036539D01*
X0092746Y0037072D01*
X0093731Y0038057D01*
X0094264Y0039343D01*
X0094264Y0043569D01*
X0095012Y0043569D01*
X0096797Y0043569D01*
X0097204Y0043678D01*
X0097569Y0043889D01*
X0097867Y0044187D01*
X0098078Y0044552D01*
X0098156Y0044843D01*
X0098233Y0044552D01*
X0098444Y0044187D01*
X0098742Y0043889D01*
X0099107Y0043678D01*
X0099514Y0043569D01*
X0101299Y0043569D01*
X0101299Y0045957D01*
X0101299Y0045957D01*
X0098187Y0045957D01*
X0095012Y0045957D01*
X0095012Y0045957D01*
X0101299Y0045957D01*
X0104474Y0045957D01*
X0104474Y0046955D01*
X0104417Y0047169D01*
X0105544Y0047169D01*
X0105487Y0046955D01*
X0105487Y0045957D01*
X0108661Y0045957D01*
X0108661Y0045957D01*
X0105487Y0045957D01*
X0105487Y0044959D01*
X0105596Y0044552D01*
X0105806Y0044187D01*
X0106104Y0043889D01*
X0106469Y0043678D01*
X0106876Y0043569D01*
X0108661Y0043569D01*
X0108661Y0045957D01*
X0108661Y0045957D01*
X0108662Y0045957D02*
X0111836Y0045957D01*
X0111836Y0046955D01*
X0111779Y0047169D01*
X0112326Y0047169D01*
X0113612Y0047702D01*
X0114597Y0048687D01*
X0115130Y0049973D01*
X0115130Y0059633D01*
X0114597Y0060920D01*
X0113612Y0061904D01*
X0112326Y0062437D01*
X0033146Y0062437D01*
X0033146Y0062974D02*
X0139505Y0062974D01*
X0139142Y0061776D02*
X0113741Y0061776D01*
X0114739Y0060577D02*
X0139142Y0060577D01*
X0139142Y0059379D02*
X0115130Y0059379D01*
X0115130Y0058180D02*
X0134649Y0058180D01*
X0133450Y0056982D02*
X0115130Y0056982D01*
X0115130Y0055783D02*
X0132935Y0055783D01*
X0132630Y0054585D02*
X0115130Y0054585D01*
X0115130Y0053386D02*
X0132630Y0053386D01*
X0132960Y0052188D02*
X0115130Y0052188D01*
X0115130Y0050989D02*
X0133510Y0050989D01*
X0134709Y0049791D02*
X0115054Y0049791D01*
X0114503Y0048592D02*
X0140217Y0048592D01*
X0140217Y0047394D02*
X0112868Y0047394D01*
X0111836Y0046195D02*
X0140217Y0046195D01*
X0140217Y0044997D02*
X0111836Y0044997D01*
X0111836Y0044959D02*
X0111836Y0045957D01*
X0108662Y0045957D01*
X0108662Y0045957D01*
X0108661Y0045957D02*
X0108661Y0043569D01*
X0110447Y0043569D01*
X0110854Y0043678D01*
X0111219Y0043889D01*
X0111517Y0044187D01*
X0111727Y0044552D01*
X0111836Y0044959D01*
X0111062Y0043798D02*
X0140217Y0043798D01*
X0140217Y0042600D02*
X0131480Y0042600D01*
X0133257Y0041401D02*
X0133507Y0041401D01*
X0133507Y0040203D02*
X0133257Y0040203D01*
X0133257Y0039004D02*
X0133507Y0039004D01*
X0133507Y0037806D02*
X0133257Y0037806D01*
X0133257Y0036607D02*
X0133507Y0036607D01*
X0133507Y0035409D02*
X0133257Y0035409D01*
X0133507Y0034660D02*
X0136432Y0034660D01*
X0138257Y0034660D01*
X0138257Y0034410D01*
X0133507Y0034410D01*
X0133507Y0034660D01*
X0138257Y0035409D02*
X0138507Y0035409D01*
X0138507Y0036607D02*
X0138257Y0036607D01*
X0138257Y0037806D02*
X0138507Y0037806D01*
X0138507Y0039004D02*
X0138257Y0039004D01*
X0138257Y0040203D02*
X0138507Y0040203D01*
X0138507Y0041401D02*
X0138257Y0041401D01*
X0136098Y0041401D02*
X0135666Y0041401D01*
X0120283Y0042600D02*
X0094264Y0042600D01*
X0094264Y0041401D02*
X0119250Y0041401D01*
X0118932Y0040203D02*
X0094264Y0040203D01*
X0094123Y0039004D02*
X0118932Y0039004D01*
X0118932Y0037806D02*
X0093480Y0037806D01*
X0091624Y0036607D02*
X0108154Y0036607D01*
X0106956Y0035409D02*
X0096013Y0035409D01*
X0096787Y0034210D02*
X0106394Y0034210D01*
X0106055Y0033012D02*
X0097020Y0033012D01*
X0097020Y0031813D02*
X0106055Y0031813D01*
X0106352Y0030615D02*
X0104709Y0030615D01*
X0106746Y0029416D02*
X0106855Y0029416D01*
X0101700Y0030615D02*
X0097020Y0030615D01*
X0097020Y0029416D02*
X0099664Y0029416D01*
X0098669Y0028218D02*
X0097020Y0028218D01*
X0097020Y0027019D02*
X0098172Y0027019D01*
X0098024Y0025821D02*
X0097020Y0025821D01*
X0097020Y0024622D02*
X0098024Y0024622D01*
X0097151Y0023424D02*
X0097020Y0023424D01*
X0093276Y0013836D02*
X0072217Y0013836D01*
X0072217Y0015034D02*
X0081292Y0015034D01*
X0080224Y0016233D02*
X0072217Y0016233D01*
X0072440Y0017431D02*
X0079783Y0017431D01*
X0079783Y0018630D02*
X0072461Y0018630D01*
X0072461Y0019828D02*
X0079783Y0019828D01*
X0079783Y0021027D02*
X0072461Y0021027D01*
X0072461Y0022225D02*
X0079783Y0022225D01*
X0079783Y0023424D02*
X0072461Y0023424D01*
X0072444Y0024622D02*
X0079783Y0024622D01*
X0079783Y0025821D02*
X0072217Y0025821D01*
X0072217Y0027019D02*
X0079783Y0027019D01*
X0079783Y0028218D02*
X0072217Y0028218D01*
X0072217Y0029416D02*
X0079783Y0029416D01*
X0079783Y0030615D02*
X0075659Y0030615D01*
X0076594Y0031813D02*
X0079783Y0031813D01*
X0079783Y0033012D02*
X0076941Y0033012D01*
X0076941Y0034210D02*
X0079783Y0034210D01*
X0078706Y0035409D02*
X0077506Y0035409D01*
X0077506Y0036607D02*
X0078706Y0036607D01*
X0078706Y0037806D02*
X0077506Y0037806D01*
X0077506Y0039004D02*
X0078706Y0039004D01*
X0078706Y0041401D02*
X0077506Y0041401D01*
X0077506Y0042600D02*
X0078706Y0042600D01*
X0078706Y0043798D02*
X0077506Y0043798D01*
X0077506Y0044997D02*
X0078706Y0044997D01*
X0079872Y0046195D02*
X0076340Y0046195D01*
X0064789Y0046195D02*
X0064600Y0046195D01*
X0065492Y0064173D02*
X0033146Y0064173D01*
X0033146Y0065371D02*
X0037253Y0065371D01*
X0035871Y0066570D02*
X0034200Y0066570D01*
X0034591Y0067769D02*
X0035480Y0067769D01*
X0035480Y0068967D02*
X0034591Y0068967D01*
X0034591Y0070166D02*
X0035480Y0070166D01*
X0035766Y0071364D02*
X0034555Y0071364D01*
X0034591Y0072563D02*
X0036721Y0072563D01*
X0036461Y0073761D02*
X0034591Y0073761D01*
X0034447Y0074960D02*
X0035658Y0074960D01*
X0035480Y0076158D02*
X0034591Y0076158D01*
X0034591Y0077357D02*
X0035480Y0077357D01*
X0035483Y0078555D02*
X0034588Y0078555D01*
X0034032Y0079754D02*
X0036039Y0079754D01*
X0037882Y0080952D02*
X0032189Y0080952D01*
X0030556Y0084548D02*
X0039908Y0084548D01*
X0039108Y0085746D02*
X0038875Y0085746D01*
X0035832Y0085746D02*
X0034632Y0085746D01*
X0034632Y0086945D02*
X0035832Y0086945D01*
X0035832Y0088143D02*
X0034632Y0088143D01*
X0034632Y0089342D02*
X0035832Y0089342D01*
X0035832Y0090540D02*
X0034632Y0090540D01*
X0034632Y0092937D02*
X0035832Y0092937D01*
X0035832Y0094136D02*
X0034632Y0094136D01*
X0034632Y0095334D02*
X0035832Y0095334D01*
X0035832Y0096533D02*
X0034632Y0096533D01*
X0031543Y0096533D02*
X0031379Y0096533D01*
X0030610Y0097731D02*
X0039855Y0097731D01*
X0039086Y0096533D02*
X0038922Y0096533D01*
X0048810Y0097731D02*
X0049650Y0097731D01*
X0049388Y0097218D02*
X0049388Y0097218D01*
X0049358Y0098930D02*
X0004000Y0098930D01*
X0004000Y0100128D02*
X0048861Y0100128D01*
X0048575Y0101327D02*
X0004000Y0101327D01*
X0004000Y0102525D02*
X0048575Y0102525D01*
X0048924Y0103724D02*
X0004000Y0103724D01*
X0004000Y0104922D02*
X0049501Y0104922D01*
X0050699Y0106121D02*
X0004000Y0106121D01*
X0004000Y0107319D02*
X0062756Y0107319D01*
X0062756Y0106121D02*
X0056813Y0106121D01*
X0058011Y0104922D02*
X0063122Y0104922D01*
X0063883Y0103724D02*
X0058588Y0103724D01*
X0058937Y0102525D02*
X0064199Y0102525D01*
X0064169Y0101327D02*
X0058937Y0101327D01*
X0063015Y0108518D02*
X0043596Y0108518D01*
X0044018Y0108693D02*
X0044862Y0109537D01*
X0045319Y0110639D01*
X0045319Y0120494D01*
X0044862Y0121597D01*
X0044018Y0122441D01*
X0042916Y0122898D01*
X0027549Y0122898D01*
X0026446Y0122441D01*
X0025602Y0121597D01*
X0025146Y0120494D01*
X0025146Y0110639D01*
X0025602Y0109537D01*
X0026446Y0108693D01*
X0027549Y0108236D01*
X0042916Y0108236D01*
X0044018Y0108693D01*
X0044937Y0109716D02*
X0063623Y0109716D01*
X0064251Y0110915D02*
X0045319Y0110915D01*
X0045319Y0112113D02*
X0064156Y0112113D01*
X0064156Y0112050D02*
X0072156Y0112050D01*
X0072156Y0116650D01*
X0072556Y0116650D01*
X0072556Y0117050D01*
X0080556Y0117050D01*
X0080556Y0117310D01*
X0080439Y0117897D01*
X0080210Y0118450D01*
X0079877Y0118948D01*
X0079454Y0119372D01*
X0078956Y0119704D01*
X0078403Y0119934D01*
X0077815Y0120050D01*
X0072556Y0120050D01*
X0072556Y0117050D01*
X0072156Y0117050D01*
X0072156Y0116650D01*
X0064156Y0116650D01*
X0064156Y0116391D01*
X0064273Y0115804D01*
X0064502Y0115250D01*
X0064835Y0114752D01*
X0065237Y0114350D01*
X0064835Y0113948D01*
X0064502Y0113450D01*
X0064273Y0112897D01*
X0064156Y0112310D01*
X0064156Y0112050D01*
X0064445Y0113312D02*
X0045319Y0113312D01*
X0045319Y0114510D02*
X0065077Y0114510D01*
X0064312Y0115709D02*
X0045319Y0115709D01*
X0045319Y0116907D02*
X0072156Y0116907D01*
X0072156Y0117050D02*
X0064156Y0117050D01*
X0064156Y0117310D01*
X0064273Y0117897D01*
X0064502Y0118450D01*
X0064835Y0118948D01*
X0065258Y0119372D01*
X0065756Y0119704D01*
X0066309Y0119934D01*
X0066896Y0120050D01*
X0072156Y0120050D01*
X0072156Y0117050D01*
X0072556Y0116907D02*
X0086433Y0116907D01*
X0086433Y0115709D02*
X0080400Y0115709D01*
X0079635Y0114510D02*
X0086433Y0114510D01*
X0086433Y0113312D02*
X0080267Y0113312D01*
X0080556Y0112113D02*
X0086433Y0112113D01*
X0086433Y0110915D02*
X0080461Y0110915D01*
X0081089Y0109716D02*
X0086433Y0109716D01*
X0081697Y0108518D02*
X0135163Y0108518D01*
X0134545Y0107900D02*
X0134545Y0107900D01*
X0134304Y0107319D02*
X0081956Y0107319D01*
X0081956Y0106121D02*
X0133814Y0106121D01*
X0133814Y0104922D02*
X0131230Y0104922D01*
X0132827Y0103724D02*
X0133814Y0103724D01*
X0133814Y0102525D02*
X0133313Y0102525D01*
X0133343Y0101327D02*
X0133814Y0101327D01*
X0125356Y0102525D02*
X0124956Y0102525D01*
X0124956Y0102050D02*
X0124956Y0105050D01*
X0119696Y0105050D01*
X0119109Y0104934D01*
X0118556Y0104704D01*
X0118058Y0104372D01*
X0117635Y0103948D01*
X0117302Y0103450D01*
X0117073Y0102897D01*
X0116956Y0102310D01*
X0116956Y0102050D01*
X0124956Y0102050D01*
X0124956Y0103724D02*
X0125356Y0103724D01*
X0125356Y0104922D02*
X0124956Y0104922D01*
X0119082Y0104922D02*
X0081589Y0104922D01*
X0080828Y0103724D02*
X0117485Y0103724D01*
X0116999Y0102525D02*
X0105340Y0102525D01*
X0106961Y0101327D02*
X0116969Y0101327D01*
X0116835Y0100128D02*
X0107784Y0100128D01*
X0108280Y0098930D02*
X0115985Y0098930D01*
X0115556Y0097731D02*
X0108307Y0097731D01*
X0108195Y0096533D02*
X0109139Y0096533D01*
X0113609Y0096533D02*
X0115556Y0096533D01*
X0115752Y0095334D02*
X0115217Y0095334D01*
X0116035Y0094136D02*
X0116070Y0094136D01*
X0116156Y0089342D02*
X0115943Y0089342D01*
X0115659Y0088143D02*
X0114994Y0088143D01*
X0115556Y0086945D02*
X0113069Y0086945D01*
X0115581Y0085746D02*
X0108277Y0085746D01*
X0108307Y0086945D02*
X0109679Y0086945D01*
X0107780Y0084548D02*
X0116078Y0084548D01*
X0115745Y0083349D02*
X0106952Y0083349D01*
X0105319Y0082151D02*
X0115556Y0082151D01*
X0115556Y0080952D02*
X0095446Y0080952D01*
X0093242Y0082151D02*
X0100933Y0082151D01*
X0099300Y0083349D02*
X0081767Y0083349D01*
X0081956Y0082151D02*
X0090805Y0082151D01*
X0088601Y0080952D02*
X0081956Y0080952D01*
X0081519Y0079754D02*
X0087537Y0079754D01*
X0087040Y0078555D02*
X0081682Y0078555D01*
X0081956Y0077357D02*
X0086843Y0077357D01*
X0086843Y0076158D02*
X0081956Y0076158D01*
X0081605Y0074960D02*
X0087280Y0074960D01*
X0087983Y0073761D02*
X0080866Y0073761D01*
X0080506Y0072563D02*
X0089312Y0072563D01*
X0094735Y0072563D02*
X0117006Y0072563D01*
X0116956Y0071650D02*
X0116956Y0071391D01*
X0117073Y0070804D01*
X0117302Y0070250D01*
X0117635Y0069752D01*
X0118037Y0069350D01*
X0117635Y0068948D01*
X0117302Y0068450D01*
X0117073Y0067897D01*
X0116956Y0067310D01*
X0116956Y0067050D01*
X0124956Y0067050D01*
X0124956Y0066650D01*
X0125356Y0066650D01*
X0125356Y0063650D01*
X0130615Y0063650D01*
X0131203Y0063767D01*
X0131756Y0063996D01*
X0132254Y0064329D01*
X0132677Y0064752D01*
X0133010Y0065250D01*
X0133239Y0065804D01*
X0133356Y0066391D01*
X0133356Y0066650D01*
X0125356Y0066650D01*
X0125356Y0067050D01*
X0124956Y0067050D01*
X0124956Y0071650D01*
X0116956Y0071650D01*
X0116961Y0071364D02*
X0080551Y0071364D01*
X0080153Y0070166D02*
X0117359Y0070166D01*
X0117653Y0068967D02*
X0079858Y0068967D01*
X0080465Y0067769D02*
X0117047Y0067769D01*
X0116956Y0066650D02*
X0116956Y0066391D01*
X0117073Y0065804D01*
X0117302Y0065250D01*
X0117635Y0064752D01*
X0118058Y0064329D01*
X0118556Y0063996D01*
X0119109Y0063767D01*
X0119696Y0063650D01*
X0124956Y0063650D01*
X0124956Y0066650D01*
X0116956Y0066650D01*
X0116956Y0066570D02*
X0080556Y0066570D01*
X0080260Y0065371D02*
X0117252Y0065371D01*
X0118292Y0064173D02*
X0079220Y0064173D01*
X0072556Y0064173D02*
X0072156Y0064173D01*
X0072156Y0065371D02*
X0072556Y0065371D01*
X0072556Y0066570D02*
X0072156Y0066570D01*
X0072156Y0067769D02*
X0072556Y0067769D01*
X0072556Y0068967D02*
X0072156Y0068967D01*
X0072156Y0070166D02*
X0072556Y0070166D01*
X0072556Y0071364D02*
X0072156Y0071364D01*
X0064452Y0065371D02*
X0062359Y0065371D01*
X0057830Y0073761D02*
X0053466Y0073761D01*
X0054168Y0074960D02*
X0057830Y0074960D01*
X0057830Y0076158D02*
X0054606Y0076158D01*
X0054606Y0077357D02*
X0057830Y0077357D01*
X0057830Y0078555D02*
X0054409Y0078555D01*
X0053912Y0079754D02*
X0057830Y0079754D01*
X0057830Y0080952D02*
X0052847Y0080952D01*
X0050643Y0082151D02*
X0057830Y0082151D01*
X0057830Y0083349D02*
X0004000Y0083349D01*
X0004000Y0082151D02*
X0048207Y0082151D01*
X0048756Y0084548D02*
X0057830Y0084548D01*
X0057830Y0085746D02*
X0049557Y0085746D01*
X0049732Y0086945D02*
X0057830Y0086945D01*
X0057830Y0088143D02*
X0055659Y0088143D01*
X0056697Y0089342D02*
X0057830Y0089342D01*
X0057830Y0090540D02*
X0057162Y0090540D01*
X0057162Y0091739D02*
X0057830Y0091739D01*
X0057830Y0092937D02*
X0057162Y0092937D01*
X0046003Y0080952D02*
X0043016Y0080952D01*
X0031589Y0085746D02*
X0031357Y0085746D01*
X0027055Y0080952D02*
X0004000Y0080952D01*
X0004000Y0079754D02*
X0016836Y0079754D01*
X0016015Y0078555D02*
X0004000Y0078555D01*
X0004000Y0077357D02*
X0015704Y0077357D01*
X0015704Y0076158D02*
X0004000Y0076158D01*
X0004000Y0074960D02*
X0015704Y0074960D01*
X0015704Y0073761D02*
X0004000Y0073761D01*
X0004000Y0072563D02*
X0015704Y0072563D01*
X0009307Y0071364D02*
X0009031Y0071364D01*
X0009031Y0070166D02*
X0009307Y0070166D01*
X0009307Y0068838D02*
X0009031Y0068838D01*
X0009031Y0065900D01*
X0004000Y0065900D01*
X0004000Y0063610D01*
X0015704Y0063610D01*
X0015704Y0065900D01*
X0009307Y0065900D01*
X0009307Y0068838D01*
X0009307Y0067769D02*
X0009031Y0067769D01*
X0009031Y0066570D02*
X0009307Y0066570D01*
X0004000Y0065371D02*
X0015704Y0065371D01*
X0015704Y0064173D02*
X0004000Y0064173D01*
X0004000Y0084548D02*
X0021708Y0084548D01*
X0020908Y0085746D02*
X0012903Y0085746D01*
X0015075Y0086945D02*
X0020732Y0086945D01*
X0020732Y0095334D02*
X0014287Y0095334D01*
X0008973Y0095334D02*
X0004000Y0095334D01*
X0004000Y0094136D02*
X0007612Y0094136D01*
X0006896Y0092937D02*
X0004000Y0092937D01*
X0004000Y0091739D02*
X0006449Y0091739D01*
X0006449Y0090540D02*
X0004000Y0090540D01*
X0004000Y0089342D02*
X0006637Y0089342D01*
X0007134Y0088143D02*
X0004000Y0088143D01*
X0004000Y0086945D02*
X0008185Y0086945D01*
X0010357Y0085746D02*
X0004000Y0085746D01*
X0004000Y0096533D02*
X0020886Y0096533D01*
X0021655Y0097731D02*
X0004000Y0097731D01*
X0004000Y0108518D02*
X0026869Y0108518D01*
X0025528Y0109716D02*
X0004000Y0109716D01*
X0004000Y0110915D02*
X0025146Y0110915D01*
X0025146Y0112113D02*
X0004000Y0112113D01*
X0004000Y0113312D02*
X0025146Y0113312D01*
X0025146Y0114510D02*
X0004000Y0114510D01*
X0004000Y0115709D02*
X0025146Y0115709D01*
X0025146Y0116907D02*
X0004000Y0116907D01*
X0004000Y0118106D02*
X0025146Y0118106D01*
X0025146Y0119305D02*
X0004000Y0119305D01*
X0004000Y0120503D02*
X0025149Y0120503D01*
X0025707Y0121702D02*
X0004000Y0121702D01*
X0004000Y0122900D02*
X0086433Y0122900D01*
X0086433Y0121702D02*
X0044758Y0121702D01*
X0045315Y0120503D02*
X0086433Y0120503D01*
X0086433Y0119305D02*
X0079521Y0119305D01*
X0080353Y0118106D02*
X0086433Y0118106D01*
X0072556Y0118106D02*
X0072156Y0118106D01*
X0072156Y0119305D02*
X0072556Y0119305D01*
X0072556Y0115709D02*
X0072156Y0115709D01*
X0072156Y0114510D02*
X0072556Y0114510D01*
X0072556Y0113312D02*
X0072156Y0113312D01*
X0072156Y0112113D02*
X0072556Y0112113D01*
X0064359Y0118106D02*
X0045319Y0118106D01*
X0045319Y0119305D02*
X0065191Y0119305D01*
X0080513Y0102525D02*
X0100911Y0102525D01*
X0099291Y0101327D02*
X0080543Y0101327D01*
X0124956Y0071364D02*
X0125356Y0071364D01*
X0125356Y0070166D02*
X0124956Y0070166D01*
X0124956Y0068967D02*
X0125356Y0068967D01*
X0125356Y0067769D02*
X0124956Y0067769D01*
X0124956Y0066570D02*
X0125356Y0066570D01*
X0125356Y0065371D02*
X0124956Y0065371D01*
X0124956Y0064173D02*
X0125356Y0064173D01*
X0132020Y0064173D02*
X0139142Y0064173D01*
X0137877Y0065371D02*
X0133060Y0065371D01*
X0133356Y0066570D02*
X0136055Y0066570D01*
X0135426Y0067769D02*
X0133265Y0067769D01*
X0132658Y0068967D02*
X0135295Y0068967D01*
X0135295Y0070166D02*
X0132953Y0070166D01*
X0133351Y0071364D02*
X0135295Y0071364D01*
X0135295Y0072563D02*
X0133306Y0072563D01*
X0133666Y0073761D02*
X0135295Y0073761D01*
X0135295Y0074960D02*
X0134405Y0074960D01*
X0134756Y0076158D02*
X0135295Y0076158D01*
X0135295Y0077357D02*
X0134756Y0077357D01*
X0105487Y0046195D02*
X0104474Y0046195D01*
X0104474Y0045957D02*
X0101299Y0045957D01*
X0101299Y0045957D01*
X0101299Y0045957D01*
X0101299Y0043569D01*
X0103085Y0043569D01*
X0103492Y0043678D01*
X0103856Y0043889D01*
X0104154Y0044187D01*
X0104365Y0044552D01*
X0104474Y0044959D01*
X0104474Y0045957D01*
X0104474Y0044997D02*
X0105487Y0044997D01*
X0106261Y0043798D02*
X0103699Y0043798D01*
X0101299Y0043798D02*
X0101299Y0043798D01*
X0101299Y0044997D02*
X0101299Y0044997D01*
X0098899Y0043798D02*
X0097412Y0043798D01*
X0095012Y0043798D02*
X0095012Y0043798D01*
X0095012Y0043569D02*
X0095012Y0045957D01*
X0095012Y0043569D01*
X0095012Y0044997D02*
X0095012Y0044997D01*
X0095012Y0045957D02*
X0095012Y0045957D01*
X0108661Y0044997D02*
X0108661Y0044997D01*
X0108661Y0043798D02*
X0108661Y0043798D01*
X0114318Y0036607D02*
X0118932Y0036607D01*
X0118932Y0035409D02*
X0115517Y0035409D01*
X0116079Y0034210D02*
X0118932Y0034210D01*
X0118932Y0033012D02*
X0116417Y0033012D01*
X0116417Y0031813D02*
X0118932Y0031813D01*
X0094175Y0010240D02*
X0072217Y0010240D01*
X0072217Y0011438D02*
X0093419Y0011438D01*
X0093276Y0012637D02*
X0072217Y0012637D01*
X0071847Y0009041D02*
X0095993Y0009041D01*
X0094722Y0007843D02*
X0070879Y0007843D01*
X0099090Y0007843D02*
X0099367Y0007843D01*
X0099367Y0009041D02*
X0099090Y0009041D01*
X0099090Y0006644D02*
X0099367Y0006644D01*
X0102463Y0009041D02*
X0102631Y0009041D01*
D24*
X0072356Y0111850D02*
X0072356Y0116850D01*
D25*
X0088421Y0105394D03*
X0103126Y0097835D03*
X0111374Y0091850D03*
X0103126Y0086850D03*
X0092024Y0077047D03*
X0084858Y0071929D03*
X0084858Y0066024D03*
X0092358Y0066024D03*
X0080724Y0049094D03*
X0074819Y0049094D03*
X0067929Y0042008D03*
X0059661Y0032559D03*
X0059661Y0026654D03*
X0059661Y0020669D03*
X0059661Y0014961D03*
X0077772Y0021535D03*
X0077772Y0026457D03*
X0077772Y0031378D03*
X0098244Y0039646D03*
X0111236Y0032362D03*
X0103205Y0025630D03*
X0121866Y0047520D03*
X0129740Y0047520D03*
X0137811Y0054016D03*
X0112043Y0105394D03*
X0067929Y0056575D03*
X0049425Y0077047D03*
X0023441Y0073110D03*
X0011630Y0090827D03*
X0008087Y0107362D03*
X0008087Y0113661D03*
X0008087Y0119567D03*
X0053362Y0120354D03*
X0053362Y0114055D03*
X0053756Y0101850D03*
X0024622Y0049094D03*
X0007693Y0031772D03*
X0007693Y0023504D03*
X0007693Y0016024D03*
X0007693Y0008150D03*
X0014780Y0007756D03*
D26*
X0024622Y0049094D02*
X0024622Y0051830D01*
X0024915Y0052537D02*
X0027378Y0055000D01*
X0029346Y0057756D02*
X0029346Y0068819D01*
X0029348Y0068850D01*
X0029353Y0068880D01*
X0029361Y0068910D01*
X0029373Y0068939D01*
X0029388Y0068966D01*
X0029406Y0068991D01*
X0029427Y0069014D01*
X0029450Y0069035D01*
X0029475Y0069053D01*
X0029502Y0069068D01*
X0029531Y0069080D01*
X0029561Y0069088D01*
X0029591Y0069093D01*
X0029622Y0069095D01*
X0029622Y0073031D02*
X0023520Y0073031D01*
X0023505Y0073033D01*
X0023490Y0073037D01*
X0023476Y0073044D01*
X0023464Y0073054D01*
X0023454Y0073066D01*
X0023447Y0073080D01*
X0023443Y0073095D01*
X0023441Y0073110D01*
X0019504Y0077047D02*
X0029543Y0077047D01*
X0029543Y0077048D02*
X0029558Y0077046D01*
X0029573Y0077042D01*
X0029587Y0077035D01*
X0029599Y0077025D01*
X0029609Y0077013D01*
X0029616Y0076999D01*
X0029620Y0076984D01*
X0029622Y0076969D01*
X0019504Y0077047D02*
X0019504Y0060134D01*
X0019502Y0060074D01*
X0019497Y0060013D01*
X0019488Y0059954D01*
X0019475Y0059895D01*
X0019459Y0059836D01*
X0019439Y0059779D01*
X0019416Y0059724D01*
X0019389Y0059669D01*
X0019360Y0059617D01*
X0019327Y0059566D01*
X0019291Y0059517D01*
X0019253Y0059471D01*
X0019211Y0059427D01*
X0019167Y0059385D01*
X0019121Y0059347D01*
X0019072Y0059311D01*
X0019021Y0059278D01*
X0018969Y0059249D01*
X0018914Y0059222D01*
X0018859Y0059199D01*
X0018802Y0059179D01*
X0018743Y0059163D01*
X0018684Y0059150D01*
X0018625Y0059141D01*
X0018564Y0059136D01*
X0018504Y0059134D01*
X0009169Y0059134D01*
X0024915Y0052537D02*
X0024873Y0052493D01*
X0024835Y0052447D01*
X0024799Y0052398D01*
X0024766Y0052347D01*
X0024737Y0052295D01*
X0024710Y0052240D01*
X0024687Y0052185D01*
X0024667Y0052128D01*
X0024651Y0052069D01*
X0024638Y0052010D01*
X0024629Y0051951D01*
X0024624Y0051890D01*
X0024622Y0051830D01*
X0040449Y0069094D02*
X0061417Y0069094D01*
X0061418Y0069095D02*
X0061460Y0069124D01*
X0061500Y0069157D01*
X0061538Y0069192D01*
X0061573Y0069230D01*
X0061605Y0069270D01*
X0061634Y0069313D01*
X0061660Y0069358D01*
X0061683Y0069404D01*
X0061703Y0069452D01*
X0061719Y0069501D01*
X0061731Y0069551D01*
X0061740Y0069601D01*
X0061745Y0069653D01*
X0061747Y0069704D01*
X0061745Y0069756D01*
X0061739Y0069807D01*
X0061730Y0069858D01*
X0061717Y0069908D01*
X0061700Y0069957D01*
X0061680Y0070004D01*
X0061657Y0070050D01*
X0061630Y0070095D01*
X0061630Y0070094D02*
X0061630Y0096850D01*
X0053756Y0096850D01*
X0053756Y0101850D01*
X0053756Y0096850D02*
X0053575Y0096850D01*
X0053533Y0096821D01*
X0053493Y0096788D01*
X0053455Y0096753D01*
X0053420Y0096715D01*
X0053388Y0096675D01*
X0053359Y0096632D01*
X0053333Y0096587D01*
X0053310Y0096541D01*
X0053290Y0096493D01*
X0053274Y0096444D01*
X0053262Y0096394D01*
X0053253Y0096344D01*
X0053248Y0096292D01*
X0053246Y0096241D01*
X0053248Y0096189D01*
X0053254Y0096138D01*
X0053263Y0096087D01*
X0053276Y0096037D01*
X0053293Y0095988D01*
X0053313Y0095941D01*
X0053336Y0095895D01*
X0053363Y0095850D01*
X0053362Y0095850D02*
X0053362Y0091220D01*
X0044387Y0091220D01*
X0044375Y0091219D01*
X0044364Y0091215D01*
X0044353Y0091208D01*
X0044345Y0091200D01*
X0044338Y0091189D01*
X0044334Y0091178D01*
X0044333Y0091166D01*
X0040449Y0076969D02*
X0049346Y0076969D01*
X0049346Y0076968D02*
X0049361Y0076970D01*
X0049376Y0076974D01*
X0049390Y0076981D01*
X0049402Y0076991D01*
X0049412Y0077003D01*
X0049419Y0077017D01*
X0049423Y0077032D01*
X0049425Y0077047D01*
X0057614Y0073032D02*
X0057655Y0073034D01*
X0057696Y0073039D01*
X0057736Y0073048D01*
X0057775Y0073060D01*
X0057813Y0073076D01*
X0057850Y0073095D01*
X0057885Y0073117D01*
X0057917Y0073142D01*
X0057948Y0073170D01*
X0057976Y0073201D01*
X0058001Y0073233D01*
X0058023Y0073268D01*
X0058042Y0073305D01*
X0058058Y0073343D01*
X0058070Y0073382D01*
X0058079Y0073422D01*
X0058084Y0073463D01*
X0058086Y0073504D01*
X0057614Y0073031D02*
X0040449Y0073031D01*
X0026132Y0091166D02*
X0011449Y0091166D01*
X0011630Y0090827D02*
X0012024Y0090954D01*
X0011987Y0090939D01*
X0011949Y0090927D01*
X0011909Y0090919D01*
X0011870Y0090915D01*
X0011830Y0090914D01*
X0011790Y0090917D01*
X0011750Y0090924D01*
X0011712Y0090934D01*
X0011674Y0090948D01*
X0011638Y0090966D01*
X0011604Y0090986D01*
X0011572Y0091010D01*
X0011542Y0091036D01*
X0011514Y0091065D01*
X0011490Y0091097D01*
X0011468Y0091131D01*
X0011450Y0091166D01*
X0061630Y0096850D02*
X0072356Y0096850D01*
X0072355Y0096850D02*
X0072357Y0096881D01*
X0072362Y0096911D01*
X0072370Y0096941D01*
X0072382Y0096970D01*
X0072397Y0096997D01*
X0072415Y0097022D01*
X0072436Y0097045D01*
X0072459Y0097066D01*
X0072484Y0097084D01*
X0072511Y0097099D01*
X0072540Y0097111D01*
X0072570Y0097119D01*
X0072600Y0097124D01*
X0072631Y0097126D01*
X0092024Y0077047D02*
X0130077Y0077047D01*
X0129997Y0076962D01*
X0129914Y0076881D01*
X0129828Y0076802D01*
X0129740Y0076727D01*
X0129649Y0076654D01*
X0129555Y0076584D01*
X0129460Y0076518D01*
X0129362Y0076454D01*
X0129262Y0076394D01*
X0129161Y0076338D01*
X0129057Y0076285D01*
X0128952Y0076235D01*
X0128845Y0076189D01*
X0128737Y0076146D01*
X0128627Y0076107D01*
X0128516Y0076072D01*
X0128404Y0076041D01*
X0128291Y0076013D01*
X0128177Y0075989D01*
X0128062Y0075969D01*
X0127947Y0075953D01*
X0127831Y0075940D01*
X0127715Y0075932D01*
X0127599Y0075927D01*
X0127483Y0075926D01*
X0127366Y0075929D01*
X0127250Y0075936D01*
X0127134Y0075947D01*
X0127019Y0075962D01*
X0126904Y0075981D01*
X0126790Y0076003D01*
X0126676Y0076029D01*
X0126564Y0076059D01*
X0126452Y0076093D01*
X0126342Y0076130D01*
X0126233Y0076172D01*
X0126126Y0076216D01*
X0126020Y0076265D01*
X0125916Y0076316D01*
X0125813Y0076372D01*
X0125713Y0076430D01*
X0125614Y0076492D01*
X0125518Y0076558D01*
X0125424Y0076626D01*
X0125332Y0076698D01*
X0125242Y0076772D01*
X0125156Y0076850D01*
X0125156Y0086850D02*
X0125157Y0086860D01*
X0125161Y0086870D01*
X0125167Y0086878D01*
X0125176Y0086884D01*
X0125185Y0086888D01*
X0125195Y0086889D01*
X0125195Y0086890D02*
X0144701Y0086890D01*
X0144701Y0078047D01*
X0144703Y0077987D01*
X0144708Y0077926D01*
X0144717Y0077867D01*
X0144730Y0077808D01*
X0144746Y0077749D01*
X0144766Y0077692D01*
X0144789Y0077637D01*
X0144816Y0077582D01*
X0144845Y0077530D01*
X0144878Y0077479D01*
X0144914Y0077430D01*
X0144952Y0077384D01*
X0144994Y0077340D01*
X0145038Y0077298D01*
X0145084Y0077260D01*
X0145133Y0077224D01*
X0145184Y0077191D01*
X0145236Y0077162D01*
X0145291Y0077135D01*
X0145346Y0077112D01*
X0145403Y0077092D01*
X0145462Y0077076D01*
X0145521Y0077063D01*
X0145580Y0077054D01*
X0145641Y0077049D01*
X0145701Y0077047D01*
X0146276Y0077047D01*
X0146276Y0092008D02*
X0125313Y0092008D01*
X0125313Y0092007D02*
X0125291Y0092005D01*
X0125269Y0092001D01*
X0125248Y0091993D01*
X0125228Y0091982D01*
X0125210Y0091969D01*
X0125194Y0091953D01*
X0125181Y0091935D01*
X0125170Y0091915D01*
X0125162Y0091894D01*
X0125158Y0091872D01*
X0125156Y0091850D01*
X0125274Y0096732D02*
X0137614Y0096732D01*
X0137614Y0105181D01*
X0137616Y0105241D01*
X0137621Y0105302D01*
X0137630Y0105361D01*
X0137643Y0105420D01*
X0137659Y0105479D01*
X0137679Y0105536D01*
X0137702Y0105591D01*
X0137729Y0105646D01*
X0137758Y0105698D01*
X0137791Y0105749D01*
X0137827Y0105798D01*
X0137865Y0105844D01*
X0137907Y0105888D01*
X0137951Y0105930D01*
X0137997Y0105968D01*
X0138046Y0106004D01*
X0138097Y0106037D01*
X0138149Y0106066D01*
X0138204Y0106093D01*
X0138259Y0106116D01*
X0138316Y0106136D01*
X0138375Y0106152D01*
X0138434Y0106165D01*
X0138493Y0106174D01*
X0138554Y0106179D01*
X0138614Y0106181D01*
X0146276Y0106181D01*
X0125274Y0096732D02*
X0125254Y0096734D01*
X0125234Y0096739D01*
X0125215Y0096748D01*
X0125198Y0096760D01*
X0125184Y0096774D01*
X0125172Y0096791D01*
X0125163Y0096810D01*
X0125158Y0096830D01*
X0125156Y0096850D01*
X0074229Y0056969D02*
X0074227Y0056930D01*
X0074221Y0056892D01*
X0074212Y0056855D01*
X0074199Y0056818D01*
X0074182Y0056783D01*
X0074163Y0056750D01*
X0074140Y0056719D01*
X0074114Y0056690D01*
X0074085Y0056664D01*
X0074054Y0056641D01*
X0074021Y0056622D01*
X0073986Y0056605D01*
X0073949Y0056592D01*
X0073912Y0056583D01*
X0073874Y0056577D01*
X0073835Y0056575D01*
X0067929Y0056575D01*
X0068028Y0042106D02*
X0068011Y0042105D01*
X0067994Y0042100D01*
X0067979Y0042093D01*
X0067965Y0042083D01*
X0067953Y0042071D01*
X0067943Y0042057D01*
X0067936Y0042042D01*
X0067931Y0042025D01*
X0067930Y0042008D01*
D27*
X0067931Y0042025D01*
X0067936Y0042042D01*
X0067943Y0042057D01*
X0067953Y0042071D01*
X0067965Y0042083D01*
X0067979Y0042093D01*
X0067994Y0042100D01*
X0068011Y0042105D01*
X0068028Y0042106D01*
X0072988Y0042106D01*
X0073441Y0038071D02*
X0069110Y0038071D01*
X0068341Y0038520D01*
X0067235Y0038520D01*
X0065953Y0039051D01*
X0064972Y0040032D01*
X0064725Y0040629D01*
X0064386Y0040827D01*
X0060843Y0040827D01*
X0064505Y0041160D01*
X0064480Y0041220D01*
X0056512Y0041220D01*
X0056000Y0019350D01*
X0056000Y0021850D01*
X0048500Y0021319D01*
X0027220Y0021319D01*
X0027220Y0010630D01*
X0068717Y0010630D01*
X0068717Y0033346D01*
X0073441Y0033346D01*
X0073441Y0038071D01*
X0073441Y0037797D02*
X0056432Y0037797D01*
X0056455Y0038795D02*
X0066570Y0038795D01*
X0065210Y0039794D02*
X0056478Y0039794D01*
X0056502Y0040792D02*
X0064445Y0040792D01*
X0056408Y0036798D02*
X0073441Y0036798D01*
X0073441Y0035800D02*
X0056385Y0035800D01*
X0056362Y0034801D02*
X0073441Y0034801D01*
X0073441Y0033803D02*
X0056338Y0033803D01*
X0056315Y0032804D02*
X0068717Y0032804D01*
X0068717Y0031806D02*
X0056291Y0031806D01*
X0056268Y0030807D02*
X0068717Y0030807D01*
X0068717Y0029809D02*
X0056245Y0029809D01*
X0056221Y0028810D02*
X0068717Y0028810D01*
X0068717Y0027812D02*
X0056198Y0027812D01*
X0056175Y0026813D02*
X0068717Y0026813D01*
X0068717Y0025815D02*
X0056151Y0025815D01*
X0056128Y0024816D02*
X0068717Y0024816D01*
X0068717Y0023818D02*
X0056105Y0023818D01*
X0056081Y0022819D02*
X0068717Y0022819D01*
X0068717Y0021821D02*
X0056058Y0021821D01*
X0056000Y0021821D02*
X0055580Y0021821D01*
X0056000Y0020822D02*
X0027220Y0020822D01*
X0027220Y0019824D02*
X0056000Y0019824D01*
X0056011Y0019824D02*
X0068717Y0019824D01*
X0068717Y0020822D02*
X0056034Y0020822D01*
X0068717Y0018825D02*
X0027220Y0018825D01*
X0027220Y0017827D02*
X0068717Y0017827D01*
X0068717Y0016828D02*
X0027220Y0016828D01*
X0027220Y0015830D02*
X0068717Y0015830D01*
X0068717Y0014831D02*
X0027220Y0014831D01*
X0027220Y0013833D02*
X0068717Y0013833D01*
X0068717Y0012834D02*
X0027220Y0012834D01*
X0027220Y0011836D02*
X0068717Y0011836D01*
X0068717Y0010837D02*
X0027220Y0010837D01*
X0005724Y0044764D02*
X0006219Y0045258D01*
X0006426Y0045417D01*
X0006667Y0045517D01*
X0006926Y0045551D01*
X0028953Y0045551D01*
X0028953Y0054606D01*
X0086039Y0054606D01*
X0086140Y0051356D01*
X0086299Y0051149D01*
X0086399Y0050908D01*
X0086433Y0050649D01*
X0086433Y0042008D01*
X0082890Y0042008D01*
X0082890Y0040039D01*
X0090764Y0040039D01*
X0090764Y0050669D01*
X0111630Y0050669D01*
X0111630Y0058937D01*
X0024228Y0058937D01*
X0024128Y0058836D01*
X0023598Y0057922D01*
X0023217Y0056937D01*
X0022996Y0055904D01*
X0022939Y0054849D01*
X0023047Y0053798D01*
X0019110Y0053819D01*
X0005724Y0053819D01*
X0005724Y0044764D01*
X0005724Y0044786D02*
X0005747Y0044786D01*
X0005724Y0045785D02*
X0028953Y0045785D01*
X0028953Y0046783D02*
X0005724Y0046783D01*
X0005724Y0047782D02*
X0028953Y0047782D01*
X0028953Y0048780D02*
X0005724Y0048780D01*
X0005724Y0049779D02*
X0028953Y0049779D01*
X0028953Y0050777D02*
X0005724Y0050777D01*
X0005724Y0051776D02*
X0028953Y0051776D01*
X0028953Y0052774D02*
X0005724Y0052774D01*
X0005724Y0053773D02*
X0028953Y0053773D01*
X0023181Y0056769D02*
X0111630Y0056769D01*
X0111630Y0057767D02*
X0023538Y0057767D01*
X0024087Y0058766D02*
X0111630Y0058766D01*
X0111630Y0055770D02*
X0022989Y0055770D01*
X0022947Y0054771D02*
X0111630Y0054771D01*
X0111630Y0053773D02*
X0086065Y0053773D01*
X0086096Y0052774D02*
X0111630Y0052774D01*
X0111630Y0051776D02*
X0086127Y0051776D01*
X0086416Y0050777D02*
X0111630Y0050777D01*
X0090764Y0049779D02*
X0086433Y0049779D01*
X0086433Y0048780D02*
X0090764Y0048780D01*
X0090764Y0047782D02*
X0086433Y0047782D01*
X0086433Y0046783D02*
X0090764Y0046783D01*
X0090764Y0045785D02*
X0086433Y0045785D01*
X0086433Y0044786D02*
X0090764Y0044786D01*
X0090764Y0043788D02*
X0086433Y0043788D01*
X0086433Y0042789D02*
X0090764Y0042789D01*
X0090764Y0041791D02*
X0082890Y0041791D01*
X0082890Y0040792D02*
X0090764Y0040792D01*
X0086039Y0038071D02*
X0086039Y0035729D01*
X0086108Y0035600D01*
X0086208Y0035493D01*
X0086332Y0035416D01*
X0086827Y0032953D01*
X0093520Y0032953D01*
X0093520Y0017992D01*
X0083283Y0017992D01*
X0083283Y0038071D01*
X0086039Y0038071D01*
X0086039Y0037797D02*
X0083283Y0037797D01*
X0083224Y0038169D02*
X0083224Y0036201D01*
X0083283Y0035800D02*
X0086039Y0035800D01*
X0086039Y0036798D02*
X0083283Y0036798D01*
X0083224Y0036201D02*
X0083266Y0036199D01*
X0083307Y0036193D01*
X0083348Y0036184D01*
X0083388Y0036170D01*
X0083426Y0036154D01*
X0083462Y0036133D01*
X0083497Y0036110D01*
X0083529Y0036083D01*
X0083559Y0036053D01*
X0083586Y0036021D01*
X0083609Y0035986D01*
X0083630Y0035950D01*
X0083646Y0035912D01*
X0083660Y0035872D01*
X0083669Y0035831D01*
X0083675Y0035790D01*
X0083677Y0035748D01*
X0083677Y0018386D01*
X0085252Y0018386D01*
X0085252Y0018385D02*
X0085274Y0018387D01*
X0085295Y0018391D01*
X0085316Y0018399D01*
X0085335Y0018409D01*
X0085353Y0018423D01*
X0085368Y0018438D01*
X0085382Y0018456D01*
X0085392Y0018475D01*
X0085400Y0018496D01*
X0085404Y0018517D01*
X0085406Y0018539D01*
X0085406Y0021031D01*
X0083283Y0020822D02*
X0093520Y0020822D01*
X0093520Y0019824D02*
X0083283Y0019824D01*
X0083283Y0018825D02*
X0093520Y0018825D01*
X0093520Y0021821D02*
X0083283Y0021821D01*
X0083283Y0022819D02*
X0093520Y0022819D01*
X0093520Y0023818D02*
X0083283Y0023818D01*
X0083283Y0024816D02*
X0093520Y0024816D01*
X0093520Y0025815D02*
X0083283Y0025815D01*
X0083283Y0026813D02*
X0093520Y0026813D01*
X0093520Y0027812D02*
X0083283Y0027812D01*
X0083283Y0028810D02*
X0093520Y0028810D01*
X0093520Y0029809D02*
X0083283Y0029809D01*
X0083283Y0030807D02*
X0093520Y0030807D01*
X0093520Y0031806D02*
X0083283Y0031806D01*
X0083283Y0032804D02*
X0093520Y0032804D01*
X0086656Y0033803D02*
X0083283Y0033803D01*
X0083283Y0034801D02*
X0086456Y0034801D01*
X0099228Y0020551D02*
X0099228Y0013858D01*
X0099228Y0020551D02*
X0118126Y0020551D01*
X0118126Y0008740D01*
X0148638Y0008740D01*
X0148638Y0068780D01*
X0143717Y0068780D01*
X0143717Y0065236D01*
X0143717Y0068780D02*
X0138795Y0068780D01*
X0138795Y0081850D01*
X0125156Y0081850D01*
X0111374Y0091850D02*
X0072356Y0091850D01*
X0072356Y0096850D02*
X0103126Y0097835D01*
X0103126Y0086850D02*
X0072356Y0086850D01*
X0111236Y0032362D02*
X0111236Y0027441D01*
X0143717Y0027441D01*
X0143717Y0018535D01*
X0143382Y0018535D01*
X0143500Y0018535D01*
X0138500Y0018535D02*
X0138500Y0025551D01*
X0110094Y0025551D01*
X0103205Y0025630D01*
X0137811Y0054016D02*
X0143717Y0054016D01*
X0143717Y0060512D01*
X0143717Y0054016D02*
X0143717Y0034535D01*
X0143382Y0034535D01*
X0143500Y0034535D01*
X0138500Y0018535D02*
X0138382Y0018535D01*
M02*
