G75*
%MOIN*%
%OFA0B0*%
%FSLAX25Y25*%
%IPPOS*%
%LPD*%
%AMOC8*
5,1,8,0,0,1.08239X$1,22.5*
%
%ADD10C,0.00500*%
%ADD11C,0.00800*%
D10*
X0013500Y0012791D02*
X0052870Y0012791D01*
X0052870Y0040350D01*
X0013500Y0040350D01*
X0013500Y0012791D01*
X0102722Y0110313D02*
X0102722Y0111664D01*
X0103172Y0112115D01*
X0104524Y0112115D01*
X0104524Y0110313D01*
X0105669Y0110763D02*
X0105669Y0111664D01*
X0106119Y0112115D01*
X0107020Y0112115D01*
X0107470Y0111664D01*
X0107470Y0110763D01*
X0107020Y0110313D01*
X0106119Y0110313D01*
X0105669Y0110763D01*
X0108615Y0110763D02*
X0109065Y0111214D01*
X0109966Y0111214D01*
X0110417Y0111664D01*
X0109966Y0112115D01*
X0108615Y0112115D01*
X0108615Y0110763D02*
X0109065Y0110313D01*
X0110417Y0110313D01*
X0111521Y0112115D02*
X0111971Y0112115D01*
X0112872Y0111214D01*
X0112872Y0110313D02*
X0112872Y0112115D01*
X0114017Y0111664D02*
X0114017Y0111214D01*
X0115819Y0111214D01*
X0115819Y0111664D02*
X0115368Y0112115D01*
X0114467Y0112115D01*
X0114017Y0111664D01*
X0114467Y0110313D02*
X0115368Y0110313D01*
X0115819Y0110763D01*
X0115819Y0111664D01*
X0116882Y0112115D02*
X0117783Y0112115D01*
X0117333Y0112565D02*
X0117333Y0110763D01*
X0116882Y0110313D01*
X0118846Y0110313D02*
X0119297Y0110763D01*
X0119297Y0112565D01*
X0119747Y0112115D02*
X0118846Y0112115D01*
X0120892Y0111664D02*
X0120892Y0110313D01*
X0122243Y0110313D01*
X0122694Y0110763D01*
X0122243Y0111214D01*
X0120892Y0111214D01*
X0120892Y0111664D02*
X0121343Y0112115D01*
X0122243Y0112115D01*
X0123839Y0112565D02*
X0123839Y0111664D01*
X0124289Y0111214D01*
X0125640Y0111214D01*
X0125640Y0110313D02*
X0125640Y0113015D01*
X0124289Y0113015D01*
X0123839Y0112565D01*
X0121793Y0114212D02*
X0121343Y0114212D01*
X0120892Y0114663D01*
X0120892Y0116915D01*
X0122243Y0116915D01*
X0122694Y0116464D01*
X0122694Y0115563D01*
X0122243Y0115113D01*
X0120892Y0115113D01*
X0119747Y0115113D02*
X0119747Y0117815D01*
X0119297Y0116915D02*
X0118396Y0116915D01*
X0117946Y0116464D01*
X0117946Y0115113D01*
X0116350Y0115563D02*
X0116350Y0117365D01*
X0115900Y0116915D02*
X0116801Y0116915D01*
X0116350Y0115563D02*
X0115900Y0115113D01*
X0119297Y0116915D02*
X0119747Y0116464D01*
X0123757Y0115113D02*
X0124658Y0115113D01*
X0124208Y0115113D02*
X0124208Y0116915D01*
X0124658Y0116915D01*
X0124208Y0117815D02*
X0124208Y0118266D01*
X0125762Y0116915D02*
X0126213Y0116915D01*
X0127114Y0116014D01*
X0127114Y0115113D02*
X0127114Y0116915D01*
X0128259Y0116915D02*
X0128259Y0114663D01*
X0128709Y0114212D01*
X0129159Y0114212D01*
X0129610Y0115113D02*
X0128259Y0115113D01*
X0129610Y0115113D02*
X0130060Y0115563D01*
X0130060Y0116915D01*
X0131205Y0116464D02*
X0131205Y0115563D01*
X0131655Y0115113D01*
X0133007Y0115113D01*
X0133007Y0114212D02*
X0133007Y0116915D01*
X0131655Y0116915D01*
X0131205Y0116464D01*
X0134152Y0116464D02*
X0134152Y0115563D01*
X0134602Y0115113D01*
X0135503Y0115113D01*
X0135953Y0115563D01*
X0135953Y0116464D01*
X0135503Y0116915D01*
X0134602Y0116915D01*
X0134152Y0116464D01*
X0137098Y0115563D02*
X0137548Y0115113D01*
X0138449Y0115113D01*
X0138900Y0115563D01*
X0138900Y0117365D01*
X0138449Y0117815D01*
X0137548Y0117815D01*
X0137098Y0117365D01*
X0137322Y0121100D02*
X0139124Y0121100D01*
X0139124Y0123803D01*
X0136177Y0123803D02*
X0136177Y0121100D01*
X0134376Y0121100D01*
X0133231Y0121100D02*
X0131880Y0121100D01*
X0131429Y0121551D01*
X0131429Y0123352D01*
X0131880Y0123803D01*
X0133231Y0123803D01*
X0133231Y0121100D01*
X0135277Y0122452D02*
X0136177Y0122452D01*
X0136177Y0123803D02*
X0134376Y0123803D01*
X0127338Y0123352D02*
X0127338Y0121551D01*
X0126888Y0121100D01*
X0125987Y0121100D01*
X0125536Y0121551D01*
X0124391Y0121551D02*
X0123941Y0121100D01*
X0123040Y0121100D01*
X0122590Y0121551D01*
X0122590Y0122452D01*
X0123040Y0122902D01*
X0123941Y0122902D01*
X0124391Y0122452D01*
X0124391Y0121551D01*
X0125536Y0123352D02*
X0125987Y0123803D01*
X0126888Y0123803D01*
X0127338Y0123352D01*
X0121445Y0122902D02*
X0121445Y0121100D01*
X0121445Y0122902D02*
X0120094Y0122902D01*
X0119643Y0122452D01*
X0119643Y0121100D01*
X0118048Y0121551D02*
X0117598Y0121100D01*
X0118048Y0121551D02*
X0118048Y0123352D01*
X0118498Y0122902D02*
X0117598Y0122902D01*
X0116534Y0122902D02*
X0116534Y0121100D01*
X0116534Y0122001D02*
X0115633Y0122902D01*
X0115183Y0122902D01*
X0114079Y0122452D02*
X0114079Y0121551D01*
X0113628Y0121100D01*
X0112727Y0121100D01*
X0112277Y0121551D01*
X0112277Y0122452D01*
X0112727Y0122902D01*
X0113628Y0122902D01*
X0114079Y0122452D01*
X0111132Y0123803D02*
X0110682Y0123803D01*
X0110682Y0121100D01*
X0111132Y0121100D02*
X0110231Y0121100D01*
X0109168Y0121100D02*
X0108267Y0121100D01*
X0108717Y0121100D02*
X0108717Y0123803D01*
X0109168Y0123803D01*
X0107203Y0122452D02*
X0107203Y0121551D01*
X0106753Y0121100D01*
X0105852Y0121100D01*
X0105402Y0122001D02*
X0107203Y0122001D01*
X0107203Y0122452D02*
X0106753Y0122902D01*
X0105852Y0122902D01*
X0105402Y0122452D01*
X0105402Y0122001D01*
X0104257Y0122001D02*
X0103356Y0122902D01*
X0102906Y0122902D01*
X0104257Y0122902D02*
X0104257Y0121100D01*
X0105096Y0117815D02*
X0105096Y0115113D01*
X0105997Y0115113D02*
X0104195Y0115113D01*
X0103050Y0115563D02*
X0102600Y0115113D01*
X0101699Y0115113D01*
X0101249Y0115563D01*
X0101249Y0116464D01*
X0101699Y0116915D01*
X0102150Y0116915D01*
X0103050Y0116464D01*
X0103050Y0117815D01*
X0101249Y0117815D01*
X0099653Y0115563D02*
X0099653Y0115113D01*
X0099203Y0115113D01*
X0099203Y0115563D01*
X0099653Y0115563D01*
X0099203Y0115113D02*
X0100104Y0114212D01*
X0105096Y0117815D02*
X0105997Y0116915D01*
X0107142Y0117365D02*
X0108943Y0115563D01*
X0108493Y0115113D01*
X0107592Y0115113D01*
X0107142Y0115563D01*
X0107142Y0117365D01*
X0107592Y0117815D01*
X0108493Y0117815D01*
X0108943Y0117365D01*
X0108943Y0115563D01*
X0110088Y0115113D02*
X0111890Y0115113D01*
X0110088Y0116915D01*
X0110088Y0117365D01*
X0110539Y0117815D01*
X0111439Y0117815D01*
X0111890Y0117365D01*
X0098855Y0122001D02*
X0097954Y0121100D01*
X0097053Y0122001D01*
X0097053Y0123803D01*
X0095908Y0123352D02*
X0095458Y0123803D01*
X0094557Y0123803D01*
X0094107Y0123352D01*
X0095908Y0121551D01*
X0095458Y0121100D01*
X0094557Y0121100D01*
X0094107Y0121551D01*
X0094107Y0123352D01*
X0095908Y0123352D02*
X0095908Y0121551D01*
X0092962Y0121551D02*
X0092512Y0121551D01*
X0092512Y0121100D01*
X0092962Y0121100D01*
X0092962Y0121551D01*
X0091489Y0121551D02*
X0091489Y0122001D01*
X0091038Y0122452D01*
X0090138Y0122452D01*
X0089687Y0122001D01*
X0089687Y0121551D01*
X0090138Y0121100D01*
X0091038Y0121100D01*
X0091489Y0121551D01*
X0091038Y0122452D02*
X0091489Y0122902D01*
X0091489Y0123352D01*
X0091038Y0123803D01*
X0090138Y0123803D01*
X0089687Y0123352D01*
X0089687Y0122902D01*
X0090138Y0122452D01*
X0098855Y0122001D02*
X0098855Y0123803D01*
X0129650Y0112115D02*
X0130551Y0112115D01*
X0130101Y0112565D02*
X0130101Y0110763D01*
X0129650Y0110313D01*
X0131696Y0111214D02*
X0133498Y0111214D01*
X0133498Y0111664D02*
X0133047Y0112115D01*
X0132147Y0112115D01*
X0131696Y0111664D01*
X0131696Y0111214D01*
X0132147Y0110313D02*
X0133047Y0110313D01*
X0133498Y0110763D01*
X0133498Y0111664D01*
X0134602Y0112115D02*
X0135052Y0112115D01*
X0135953Y0111214D01*
X0135953Y0110313D02*
X0135953Y0112115D01*
X0137098Y0112115D02*
X0137098Y0112565D01*
X0137548Y0113015D01*
X0138900Y0113015D01*
X0138900Y0110313D01*
X0137548Y0110313D01*
X0137098Y0110763D01*
X0137098Y0111214D01*
X0137548Y0111664D01*
X0138900Y0111664D01*
X0137548Y0111664D02*
X0137098Y0112115D01*
D11*
X0051171Y0047021D02*
X0051171Y0044219D01*
X0050470Y0043518D01*
X0049069Y0043518D01*
X0048368Y0044219D01*
X0048368Y0045620D01*
X0049770Y0045620D01*
X0051171Y0047021D02*
X0050470Y0047722D01*
X0049069Y0047722D01*
X0048368Y0047021D01*
X0046567Y0047722D02*
X0043765Y0043518D01*
X0043765Y0047722D01*
X0041963Y0047722D02*
X0039861Y0047722D01*
X0039161Y0047021D01*
X0039161Y0044219D01*
X0039861Y0043518D01*
X0041963Y0043518D01*
X0041963Y0047722D01*
X0046567Y0047722D02*
X0046567Y0043518D01*
X0043882Y0011454D02*
X0042481Y0011454D01*
X0041781Y0010753D01*
X0041781Y0010053D01*
X0042481Y0009352D01*
X0041781Y0008652D01*
X0041781Y0007951D01*
X0042481Y0007250D01*
X0043882Y0007250D01*
X0044583Y0007951D01*
X0046184Y0007951D02*
X0046184Y0007250D01*
X0046885Y0007250D01*
X0046885Y0007951D01*
X0046184Y0007951D01*
X0048687Y0007250D02*
X0051489Y0007250D01*
X0048687Y0010053D01*
X0048687Y0010753D01*
X0049387Y0011454D01*
X0050788Y0011454D01*
X0051489Y0010753D01*
X0044583Y0010753D02*
X0043882Y0011454D01*
X0043182Y0009352D02*
X0042481Y0009352D01*
X0039979Y0009352D02*
X0037177Y0009352D01*
X0035375Y0009352D02*
X0033974Y0010053D01*
X0033273Y0010053D01*
X0032573Y0009352D01*
X0032573Y0007951D01*
X0033273Y0007250D01*
X0034675Y0007250D01*
X0035375Y0007951D01*
X0035375Y0009352D02*
X0035375Y0011454D01*
X0032573Y0011454D01*
X0030771Y0007951D02*
X0030071Y0007951D01*
X0030071Y0007250D01*
X0030771Y0007250D01*
X0030771Y0007951D01*
X0028469Y0007951D02*
X0027769Y0007250D01*
X0026368Y0007250D01*
X0025667Y0007951D01*
X0025667Y0009352D01*
X0026368Y0010053D01*
X0027068Y0010053D01*
X0028469Y0009352D01*
X0028469Y0011454D01*
X0025667Y0011454D01*
X0023865Y0010053D02*
X0022464Y0007250D01*
X0021063Y0010053D01*
M02*
